<?xml version="1.0" encoding="utf-8"?>
<!-- Generator: Adobe Illustrator 16.0.4, SVG Export Plug-In . SVG Version: 6.00 Build 0)  -->
<!DOCTYPE svg PUBLIC "-//W3C//DTD SVG 1.1//EN" "http://www.w3.org/Graphics/SVG/1.1/DTD/svg11.dtd">
<svg version="1.1" id="Calque_1" xmlns="http://www.w3.org/2000/svg" xmlns:xlink="http://www.w3.org/1999/xlink" x="0px" y="0px"
	 width="300px" height="395.622px" viewBox="0 0 300 395.622" enable-background="new 0 0 300 395.622" xml:space="preserve">
<g>
	<g>
		<path fill="#3D0042" d="M45.809,320.539c0-4.105,1.771-7.52,5.32-10.238c3.545-2.721,7.932-4.08,13.16-4.08
			c4.051,0,7.211,0.826,9.479,2.479c2.269,1.654,3.4,4.027,3.4,7.119c0,2.4-0.6,4.35-1.799,5.842
			c-1.201,1.492-2.789,2.238-4.762,2.238c-0.746,0-1.426-0.133-2.039-0.398c-0.613-0.268-1.16-0.693-1.641-1.279
			c1.065-0.641,1.934-1.602,2.6-2.881c0.668-1.279,1-2.613,1-4c0-1.707-0.506-3.025-1.521-3.959c-1.014-0.934-2.479-1.4-4.399-1.4
			c-2.293,0-4.094,0.641-5.398,1.92c-1.309,1.279-1.961,3.066-1.961,5.359c0,1.867,0.48,3.641,1.439,5.32
			c0.961,1.68,3.041,3.934,6.24,6.76c4.213,3.68,6.985,6.867,8.319,9.561c1.332,2.693,2,5.693,2,9c0,6.08-2.106,10.934-6.319,14.561
			c-4.214,3.627-9.601,5.439-16.16,5.439c-5.228,0-9.359-1.201-12.398-3.6c-3.041-2.4-4.561-5.787-4.561-10.16
			c0-3.84,1.146-6.986,3.438-9.441c2.293-2.451,5.065-3.68,8.319-3.68c2.025,0,3.681,0.469,4.959,1.4
			c1.281,0.934,1.974,2.229,2.08,3.881c-2.772,0-5.026,0.666-6.76,2c-1.732,1.332-2.6,3.174-2.6,5.52c0,2.24,0.693,4.08,2.08,5.521
			c1.387,1.438,3.252,2.158,5.6,2.158c2.773,0,5.014-0.959,6.721-2.879c1.705-1.922,2.562-4.508,2.562-7.762
			c0-2.506-0.562-4.904-1.683-7.199c-1.118-2.293-3.438-5.359-6.959-9.199c-3.198-3.412-5.293-6.094-6.278-8.039
			C46.301,324.473,45.809,322.514,45.809,320.539z"/>
		<path fill="#3D0042" d="M98.688,357.66c0-0.961,0.119-2.16,0.358-3.602c0.24-1.439,0.731-3.73,1.479-6.879
			c0.746-3.041,1.228-5.227,1.439-6.561c0.213-1.332,0.32-2.453,0.32-3.359c0-1.334-0.254-2.348-0.76-3.041
			c-0.508-0.691-1.24-1.039-2.199-1.039c-1.281,0-2.521,0.76-3.721,2.279s-1.988,3.107-2.359,4.76l-5.521,26h-11.52l11.6-54.4
			l11.84-1.6l-4.317,20.16c1.332-1.492,2.771-2.613,4.317-3.359s3.228-1.121,5.041-1.121c2.826,0,5.013,0.773,6.562,2.32
			c1.545,1.547,2.317,3.787,2.317,6.721c0,1.229-0.146,2.68-0.438,4.359s-0.867,4.254-1.719,7.721
			c-0.695,2.719-1.148,4.641-1.361,5.76s-0.319,2.055-0.319,2.801c0,1.119,0.268,1.959,0.801,2.52s1.332,0.84,2.4,0.84
			c1.331,0,2.479-0.451,3.438-1.359c0.961-0.906,2.053-2.801,3.278-5.68h3.361c-1.707,4.959-3.773,8.668-6.201,11.119
			c-2.428,2.455-5.318,3.68-8.68,3.68c-2.986,0-5.307-0.811-6.959-2.438C99.514,362.633,98.688,360.434,98.688,357.66z"/>
		<path fill="#3D0042" d="M148.607,333.18c0,4.428-1.814,8.279-5.439,11.559c-3.629,3.281-7.947,5.055-12.961,5.32
			c-0.053,0.908-0.094,1.588-0.119,2.041c-0.027,0.453-0.041,0.84-0.041,1.16c0,2.453,0.412,4.188,1.24,5.199
			c0.826,1.014,2.332,1.52,4.52,1.52c2.508,0,4.812-0.57,6.92-1.719c2.107-1.146,4.521-3.268,7.24-6.361h2.721
			c-3.094,5.016-6.453,8.734-10.08,11.16c-3.627,2.428-7.6,3.641-11.92,3.641c-4.106,0-7.215-1.066-9.319-3.199
			c-2.106-2.133-3.16-5.307-3.16-9.521c0-3.039,0.479-6.266,1.438-9.68c0.961-3.412,2.24-6.453,3.842-9.119
			c1.972-3.201,4.332-5.613,7.078-7.24c2.748-1.627,5.828-2.439,9.24-2.439c2.935,0,5.133,0.627,6.603,1.881
			C147.873,328.633,148.607,330.566,148.607,333.18z M140.447,329.738c-1.814,0-3.641,1.615-5.48,4.842s-3.213,7.105-4.119,11.641
			c3.092-0.213,5.799-1.641,8.119-4.281c2.32-2.639,3.48-5.611,3.48-8.92c0-1.119-0.16-1.945-0.48-2.479
			C141.646,330.006,141.141,329.738,140.447,329.738z"/>
		<path fill="#3D0042" d="M179.326,333.18c0,4.428-1.814,8.279-5.439,11.559c-3.629,3.281-7.947,5.055-12.961,5.32
			c-0.053,0.908-0.094,1.588-0.119,2.041c-0.026,0.453-0.041,0.84-0.041,1.16c0,2.453,0.412,4.188,1.24,5.199
			c0.826,1.014,2.332,1.52,4.52,1.52c2.509,0,4.812-0.57,6.921-1.719c2.106-1.146,4.521-3.268,7.239-6.361h2.722
			c-3.095,5.016-6.453,8.734-10.08,11.16c-3.627,2.428-7.601,3.641-11.92,3.641c-4.107,0-7.216-1.066-9.32-3.199
			c-2.106-2.133-3.159-5.307-3.159-9.521c0-3.039,0.479-6.266,1.438-9.68c0.961-3.412,2.239-6.453,3.842-9.119
			c1.972-3.201,4.332-5.613,7.078-7.24c2.748-1.627,5.828-2.439,9.239-2.439c2.935,0,5.134,0.627,6.603,1.881
			C178.592,328.633,179.326,330.566,179.326,333.18z M171.166,329.738c-1.814,0-3.641,1.615-5.48,4.842s-3.213,7.105-4.119,11.641
			c3.093-0.213,5.8-1.641,8.119-4.281c2.32-2.639,3.48-5.611,3.48-8.92c0-1.119-0.16-1.945-0.48-2.479
			C172.365,330.006,171.859,329.738,171.166,329.738z"/>
		<path fill="#3D0042" d="M185.484,383.34l-12.08,2.879l13.361-62.959h11.52l-1.281,6c1.334-1.121,2.773-1.973,4.32-2.562
			c1.547-0.586,3.227-0.879,5.041-0.879c3.199,0,5.625,1.066,7.279,3.199c1.651,2.135,2.479,5.281,2.479,9.441
			c0,8.158-1.748,14.906-5.24,20.238c-3.493,5.334-8.307,8-14.438,8c-1.707,0-3.135-0.238-4.281-0.721
			c-1.146-0.48-1.986-1.199-2.52-2.16L185.484,383.34z M190.926,357.898c0.211,0.588,0.586,1.041,1.119,1.361
			c0.533,0.318,1.172,0.479,1.92,0.479c3.359,0,6.066-2.16,8.119-6.479c2.053-4.32,3.08-9.334,3.08-15.041
			c0-2.188-0.318-3.84-0.959-4.959c-0.641-1.121-1.654-1.682-3.041-1.682c-0.959,0-1.947,0.359-2.959,1.08
			c-1.014,0.721-1.867,1.668-2.561,2.84L190.926,357.898z"/>
		<path fill="#009E88" d="M217.803,357.1c0-0.693,0.055-1.48,0.16-2.361c0.107-0.879,0.268-1.824,0.48-2.84l5.438-25.68h11.521
			l-5.76,27.201c-0.108,0.479-0.188,0.92-0.24,1.318c-0.055,0.4-0.079,0.814-0.079,1.24c0,1.066,0.252,1.826,0.76,2.279
			c0.506,0.453,1.347,0.68,2.521,0.68c1.492,0,2.905-0.65,4.239-1.959c1.332-1.307,2.32-3,2.959-5.08h3.361
			c-1.707,4.854-4,8.533-6.881,11.039c-2.88,2.508-6.188,3.762-9.921,3.762c-2.668,0-4.76-0.842-6.278-2.521
			C218.564,362.5,217.803,360.139,217.803,357.1z M238.203,315.58c0,1.76-0.627,3.254-1.879,4.479
			c-1.254,1.229-2.76,1.84-4.521,1.84c-1.76,0-3.252-0.611-4.479-1.84c-1.229-1.227-1.84-2.719-1.84-4.479
			c0-1.762,0.611-3.268,1.84-4.521c1.227-1.252,2.719-1.879,4.479-1.879c1.762,0,3.269,0.627,4.521,1.879
			C237.576,312.312,238.203,313.818,238.203,315.58z"/>
		<path fill="#009E88" d="M242.604,326.219h2.642l2.399-11.039l11.84-1.602l-2.721,12.641h4.801l-0.641,3.201h-4.801l-5.119,24
			c-0.107,0.479-0.188,0.92-0.24,1.318c-0.053,0.4-0.08,0.814-0.08,1.24c0,1.066,0.252,1.826,0.76,2.279
			c0.509,0.453,1.349,0.68,2.521,0.68c1.492,0,2.906-0.65,4.238-1.959c1.334-1.307,2.32-3,2.961-5.08h3.359
			c-1.707,4.854-4,8.533-6.879,11.039c-2.881,2.508-6.188,3.76-9.92,3.76c-2.668,0-4.761-0.84-6.281-2.52s-2.279-4.039-2.279-7.08
			c0-0.691,0.053-1.479,0.16-2.359s0.268-1.826,0.48-2.84l4.799-22.479h-2.64L242.604,326.219z"/>
	</g>
	<g>
		<ellipse opacity="0.2" enable-background="new    " cx="149.402" cy="276.629" rx="110.688" ry="4.275"/>
		<g>
			<path fill="#FFFFFF" d="M291.291,135.624c-2.213-6.727-15.354-11.887-32.575-15.814c9.354-3.237,16.49-7.511,19.144-13.153
				c11.246-23.916-21.77-91.5-44.52-84.75c-11.967,3.551-27.555,17.916-41.666,33.461c3.449-11.314,5.668-21.444,4.646-26.572
				c-3.125-15.683-60.609-30.974-70.282-6.729c-2.162,5.418-2.804,12.328-2.498,19.789c-12.958-9.566-27.212-16.575-40.181-15.198
				c-29.938,3.179-46.242,49.745-44.52,76.689c-8.24-0.234-15.081,0.457-19.23,2.574c-20.18,10.297-12,56.235-0.25,67.235
				c3.078,2.884,12.701,2.314,25.221-0.09c-2.707,3.494-4.335,6.742-4.471,9.59c-1.039,21.758,31.463,64.213,69.72,67
				c14.295,1.043,27.823-12.902,39.164-30.777c5.516,17.469,12.39,31.479,20.616,34.283c24.802,8.457,59.793-17.453,62.5-30.506
				c0.658-3.18-2.48-11.154-7.6-21.393c13.049,9.068,24.814,15.699,31.163,15.557C275.464,216.377,298.587,157.796,291.291,135.624z
				"/>
			<g>
				<path fill="#009E88" d="M277.859,106.656c-11.246,23.916-103,23.25-103,23.25l-19.771-28.75c0,0,49.547-70.734,78.25-79.25
					C256.09,15.156,289.105,82.74,277.859,106.656z"/>
				<path opacity="0.7" fill="#360052" enable-background="new    " d="M172.256,106.968l-35.167-6.593
					c0,0-20.724-54.067-11.051-78.311s67.157-8.953,70.282,6.729C199.445,44.478,172.256,106.968,172.256,106.968z"/>
				<path opacity="0.7" fill="#360052" enable-background="new    " d="M255.674,216.82c-19.79,0.441-92.182-64.885-92.182-64.885
					l-5.426-43.661c0,0,125.93,5.176,133.225,27.349C298.587,157.796,275.464,216.377,255.674,216.82z"/>
				<path opacity="0.7" fill="#360052" enable-background="new    " d="M179.268,209.406c-19.082-5.92-38.658-62.25-38.658-62.25
					l38.408-30.623c0,0,53.342,35.623,56.592,51.873S198.352,215.326,179.268,209.406z"/>
				<path opacity="0.7" fill="#360052" enable-background="new    " d="M169.609,253.162
					c-24.803-8.457-37.324-118.726-37.324-118.726l41.324-18.592c0,0,61.205,93.759,58.5,106.812
					C229.402,235.709,194.411,261.617,169.609,253.162z"/>
				<path opacity="0.7" fill="#360052" enable-background="new    " d="M180.859,147.906c0,0-32.774,104.539-71.03,101.75
					s-70.759-45.244-69.72-67s88.5-66.812,88.5-66.812L180.859,147.906z"/>
				<path opacity="0.7" fill="#360052" enable-background="new    " d="M138.109,144.943c0,0-107,39.213-118.75,28.213
					s-19.93-56.939,0.25-67.236c20.179-10.297,103.856,13.078,103.856,13.078L138.109,144.943z"/>
				<path opacity="0.7" fill="#360052" enable-background="new    " d="M165.859,84.406l-33.574,58c0,0-73.86,1.642-89.926-25.25
					c-11.5-19.25,4.768-86.653,41-90.5C119.591,22.809,165.859,84.406,165.859,84.406z"/>
				<path opacity="0.7" fill="#360052" enable-background="new    " d="M245.359,104.156c-5.51,12.984-64.5,16.94-64.5,16.94
					l-6-22.69c0,0,23.838-46.759,40.322-43.75C231.665,57.665,250.868,91.171,245.359,104.156z"/>
				<path opacity="0.7" fill="#360052" enable-background="new    " d="M147.27,150.488c0,0-10.422,41.605-26.871,47.023
					c-16.448,5.42-35.041-19.89-35.057-29.716c-0.016-9.825,48.975-30.085,48.975-30.085L147.27,150.488z"/>
			</g>
			<path fill="#3D0042" d="M114.395,252.471c-1.512,0.219-3.033,0.297-4.564,0.186c-1.146-0.084-2.286-0.205-3.421-0.357
				c-0.644,9.092-2.597,20.756-0.451,22.773c2.833,2.666,9.651,2.834,10.485,1.334s2.5-6.834,0-16.168
				C115.615,257.146,114.936,254.611,114.395,252.471z"/>
			<path fill="#3D0042" d="M192.082,256.17c-3.066,0.811-6.152,1.336-9.204,1.541c-0.551,8.484-1.837,17.021-0.019,18.732
				c2.832,2.666,9.479-0.49,10.312-1.99s2.562-4.84,0.062-14.174C192.834,258.785,192.449,257.428,192.082,256.17z"/>
			<g>
				<path fill="#FFFFFF" d="M122.735,78.211c-17.54,10.961-28.97,27.214-28.97,32.481s10.24,11.705,15.801,11.412
					c5.561-0.292,15.217-22.239,12.876-14.046c-2.341,8.195-4.39,11.705-2.926,29.849c1.463,18.142,8.778,20.484,15.216,24.287
					c6.439,3.806,20.778,5.854,27.215,5.854c6.438,0,14.34-0.878,23.039-5.562c8.702-4.682,17.637-12.289,19.1-29.847
					s-19.1-42.724-19.1-42.724s14.711,8.779,19.686,9.071c4.974,0.293,7.314-3.803,8.484-8.778
					c1.172-4.974,1.172-11.12-16.68-19.898c-17.85-8.78-32.189-7.609-40.09-6.146C148.486,65.626,140.683,66.993,122.735,78.211z"/>
				<ellipse fill="#360052" cx="167.201" cy="110.115" rx="3.334" ry="6.582"/>
				<path fill="#360052" d="M168.574,153.156c0.045,1.84-3.453,7.128-7.082,6.873c-8.916-0.623-14.142-5.949-14.188-7.791
					c-0.045-1.84,9.951,2.203,13.585,2.113C164.526,154.264,168.529,151.314,168.574,153.156z"/>
				<ellipse fill="#360052" cx="154.283" cy="110.697" rx="3.625" ry="7.176"/>
			</g>
		</g>
	</g>
</g>
</svg>
