<?xml version="1.0" encoding="utf-8"?>
<!-- Generator: Adobe Illustrator 16.0.4, SVG Export Plug-In . SVG Version: 6.00 Build 0)  -->
<!DOCTYPE svg PUBLIC "-//W3C//DTD SVG 1.1//EN" "http://www.w3.org/Graphics/SVG/1.1/DTD/svg11.dtd">
<svg version="1.1" id="Calque_1" xmlns="http://www.w3.org/2000/svg" xmlns:xlink="http://www.w3.org/1999/xlink" x="0px" y="0px"
	 width="953px" height="280px" viewBox="0 0 953 280" enable-background="new 0 0 953 280" xml:space="preserve">
<g>
	<g>
		<path fill="#3D0042" d="M375.938,107.458c0-10.532,4.545-19.29,13.648-26.264c9.094-6.979,20.347-10.466,33.759-10.466
			c10.392,0,18.498,2.119,24.315,6.358c5.819,4.244,8.723,10.331,8.723,18.263c0,6.158-1.538,11.158-4.614,14.986
			c-3.081,3.828-7.154,5.742-12.215,5.742c-1.914,0-3.658-0.341-5.231-1.022c-1.573-0.686-2.976-1.778-4.208-3.281
			c2.732-1.644,4.96-4.109,6.669-7.391c1.713-3.282,2.564-6.704,2.564-10.261c0-4.379-1.297-7.761-3.9-10.156
			c-2.601-2.395-6.36-3.592-11.285-3.592c-5.882,0-10.502,1.644-13.849,4.925c-3.357,3.282-5.03,7.866-5.03,13.748
			c0,4.79,1.232,9.339,3.692,13.648c2.465,4.309,7.801,10.09,16.008,17.34c10.808,9.44,17.92,17.616,21.342,24.526
			c3.417,6.909,5.13,14.604,5.13,23.087c0,15.597-5.403,28.048-16.21,37.352c-10.811,9.305-24.629,13.954-41.456,13.954
			c-13.409,0-24.009-3.082-31.805-9.234c-7.801-6.157-11.699-14.846-11.699-26.063c0-9.851,2.938-17.922,8.82-24.22
			c5.883-6.288,12.994-9.439,21.342-9.439c5.195,0,9.441,1.203,12.721,3.593c3.287,2.395,5.063,5.717,5.336,9.955
			c-7.112,0-12.894,1.709-17.341,5.131c-4.443,3.417-6.668,8.142-6.668,14.159c0,5.746,1.778,10.466,5.336,14.164
			c3.557,3.688,8.342,5.536,14.364,5.536c7.114,0,12.861-2.46,17.24-7.385c4.374-4.931,6.571-11.564,6.571-19.911
			c0-6.429-1.44-12.581-4.316-18.468c-2.868-5.883-8.82-13.749-17.852-23.599c-8.204-8.753-13.578-15.632-16.105-20.622
			C377.2,117.549,375.938,112.524,375.938,107.458z"/>
		<path fill="#3D0042" d="M511.586,202.684c0-2.465,0.306-5.541,0.92-9.238c0.616-3.693,1.876-9.57,3.795-17.646
			c1.914-7.801,3.149-13.407,3.692-16.83c0.547-3.417,0.822-6.293,0.822-8.617c0-3.422-0.651-6.022-1.949-7.801
			c-1.303-1.774-3.182-2.666-5.642-2.666c-3.286,0-6.468,1.949-9.544,5.848c-3.077,3.897-5.101,7.971-6.053,12.21l-14.164,66.696
			h-29.551l29.756-139.551l30.372-4.104L502.966,132.7c3.417-3.828,7.107-6.703,11.075-8.617c3.969-1.914,8.28-2.877,12.932-2.877
			c7.25,0,12.859,1.984,16.832,5.953c3.964,3.968,5.945,9.715,5.945,17.24c0,3.151-0.374,6.874-1.125,11.183
			c-0.752,4.309-2.225,10.912-4.409,19.806c-1.783,6.975-2.946,11.904-3.492,14.775s-0.819,5.271-0.819,7.185
			c0,2.871,0.687,5.025,2.055,6.464c1.367,1.438,3.417,2.154,6.157,2.154c3.415,0,6.36-1.157,8.82-3.487
			c2.466-2.325,5.267-7.185,8.41-14.57h8.623c-4.379,12.722-9.68,22.236-15.908,28.523c-6.228,6.299-13.643,9.439-22.266,9.439
			c-7.66,0-13.612-2.079-17.852-6.252C513.706,215.44,511.586,209.799,511.586,202.684z"/>
		<path fill="#3D0042" d="M639.645,139.885c0,11.358-4.654,21.238-13.954,29.651c-9.309,8.417-20.387,12.966-33.248,13.647
			c-0.135,2.33-0.24,4.073-0.306,5.236c-0.07,1.162-0.105,2.154-0.105,2.976c0,6.293,1.058,10.742,3.182,13.338
			c2.119,2.6,5.982,3.897,11.594,3.897c6.434,0,12.346-1.463,17.752-4.409c5.406-2.94,11.599-8.382,18.573-16.318h6.979
			c-7.937,12.866-16.555,22.406-25.858,28.629c-9.305,6.228-19.495,9.339-30.578,9.339c-10.534,0-18.508-2.735-23.906-8.206
			c-5.403-5.472-8.106-13.613-8.106-24.426c0-7.796,1.229-16.073,3.689-24.831c2.465-8.753,5.747-16.554,9.855-23.393
			c5.058-8.212,11.113-14.399,18.157-18.573c7.05-4.174,14.951-6.258,23.704-6.258c7.527,0,13.167,1.608,16.937,4.824
			C637.761,128.222,639.645,133.181,639.645,139.885z M618.711,131.057c-4.654,0-9.339,4.144-14.059,12.421
			c-4.72,8.276-8.242,18.228-10.566,29.861c7.931-0.546,14.875-4.209,20.827-10.982c5.953-6.77,8.929-14.395,8.929-22.882
			c0-2.872-0.411-4.991-1.232-6.358C621.788,131.743,620.49,131.057,618.711,131.057z"/>
		<path fill="#3D0042" d="M718.446,139.885c0,11.358-4.654,21.238-13.954,29.651c-9.309,8.417-20.387,12.966-33.248,13.647
			c-0.135,2.33-0.24,4.073-0.306,5.236c-0.067,1.162-0.105,2.154-0.105,2.976c0,6.293,1.058,10.742,3.182,13.338
			c2.12,2.6,5.982,3.897,11.594,3.897c6.437,0,12.346-1.463,17.754-4.409c5.404-2.94,11.597-8.382,18.571-16.318h6.981
			c-7.938,12.866-16.554,22.406-25.858,28.629c-9.304,6.228-19.497,9.339-30.577,9.339c-10.537,0-18.511-2.735-23.909-8.206
			c-5.403-5.472-8.104-13.613-8.104-24.426c0-7.796,1.23-16.073,3.69-24.831c2.465-8.753,5.744-16.554,9.855-23.393
			c5.058-8.212,11.112-14.399,18.157-18.573c7.049-4.174,14.95-6.258,23.701-6.258c7.527,0,13.169,1.608,16.937,4.824
			C716.562,128.222,718.446,133.181,718.446,139.885z M697.514,131.057c-4.655,0-9.34,4.144-14.06,12.421
			c-4.72,8.276-8.242,18.228-10.566,29.861c7.934-0.546,14.878-4.209,20.828-10.982c5.952-6.77,8.928-14.395,8.928-22.882
			c0-2.872-0.411-4.991-1.232-6.358C700.59,131.743,699.292,131.057,697.514,131.057z"/>
		<path fill="#3D0042" d="M734.243,268.56l-30.988,7.385l34.275-161.507h29.551l-3.287,15.392c3.423-2.876,7.115-5.061,11.083-6.573
			c3.968-1.503,8.277-2.255,12.932-2.255c8.207,0,14.43,2.736,18.674,8.207c4.235,5.477,6.36,13.548,6.36,24.22
			c0,20.928-4.484,38.238-13.442,51.917c-8.961,13.683-21.31,20.521-37.039,20.521c-4.379,0-8.041-0.611-10.982-1.849
			c-2.941-1.232-5.096-3.076-6.464-5.541L734.243,268.56z M748.202,203.295c0.541,1.509,1.503,2.671,2.871,3.492
			c1.368,0.816,3.006,1.228,4.925,1.228c8.618,0,15.562-5.541,20.828-16.619c5.266-11.083,7.901-23.944,7.901-38.584
			c0-5.611-0.817-9.851-2.46-12.721c-1.644-2.877-4.244-4.314-7.802-4.314c-2.46,0-4.995,0.922-7.59,2.771
			c-2.601,1.85-4.79,4.279-6.568,7.285L748.202,203.295z"/>
		<path fill="#009E88" d="M817.148,201.246c0-1.779,0.141-3.798,0.411-6.058c0.275-2.255,0.687-4.68,1.232-7.285l13.951-65.875
			h29.554l-14.775,69.778c-0.278,1.228-0.481,2.359-0.616,3.382c-0.141,1.027-0.203,2.089-0.203,3.182
			c0,2.735,0.646,4.685,1.949,5.847c1.297,1.163,3.454,1.744,6.466,1.744c3.827,0,7.452-1.669,10.874-5.025
			c3.417-3.353,5.953-7.696,7.591-13.032h8.623c-4.379,12.451-10.261,21.891-17.651,28.318c-7.388,6.434-15.875,9.649-25.45,9.649
			c-6.844,0-12.21-2.159-16.105-6.468C819.103,215.1,817.148,209.042,817.148,201.246z M869.481,94.737
			c0,4.514-1.608,8.347-4.82,11.488c-3.217,3.152-7.079,4.72-11.599,4.72c-4.515,0-8.342-1.568-11.488-4.72
			c-3.151-3.146-4.72-6.974-4.72-11.488c0-4.52,1.568-8.382,4.72-11.599c3.146-3.212,6.974-4.82,11.488-4.82
			c4.52,0,8.385,1.608,11.599,4.82C867.873,86.355,869.481,90.218,869.481,94.737z"/>
		<path fill="#009E88" d="M880.77,122.028h6.776l6.155-28.318l30.372-4.108l-6.979,32.427h12.315l-1.644,8.212h-12.314
			l-13.133,61.566c-0.275,1.228-0.48,2.359-0.616,3.382c-0.135,1.027-0.205,2.089-0.205,3.182c0,2.735,0.646,4.685,1.949,5.847
			c1.305,1.163,3.459,1.744,6.468,1.744c3.828,0,7.456-1.669,10.873-5.025c3.422-3.353,5.952-7.696,7.595-13.032H937
			c-4.379,12.451-10.261,21.891-17.646,28.318c-7.39,6.434-15.875,9.645-25.447,9.645c-6.844,0-12.212-2.154-16.113-6.463
			c-3.9-4.309-5.847-10.361-5.847-18.162c0-1.774,0.136-3.793,0.411-6.053s0.687-4.685,1.232-7.285L885.9,130.24h-6.771
			L880.77,122.028z"/>
	</g>
	<g>
		<ellipse opacity="0.2" enable-background="new    " cx="149.402" cy="271.669" rx="110.688" ry="4.275"/>
		<g>
			<path fill="#FFFFFF" d="M291.291,130.664c-2.213-6.728-15.354-11.888-32.575-15.814c9.354-3.237,16.49-7.511,19.144-13.153
				c11.246-23.916-21.77-91.5-44.52-84.75c-11.967,3.551-27.555,17.916-41.666,33.461c3.449-11.314,5.668-21.444,4.646-26.572
				c-3.125-15.683-60.609-30.974-70.282-6.729c-2.162,5.418-2.804,12.328-2.498,19.789c-12.958-9.566-27.212-16.575-40.181-15.198
				c-29.938,3.179-46.242,49.745-44.52,76.689c-8.24-0.234-15.081,0.457-19.23,2.574c-20.18,10.297-12,56.235-0.25,67.235
				c3.078,2.884,12.701,2.314,25.221-0.09c-2.707,3.494-4.335,6.742-4.471,9.59c-1.039,21.758,31.463,64.213,69.72,67
				c14.295,1.043,27.823-12.902,39.164-30.777c5.516,17.469,12.39,31.479,20.616,34.283c24.802,8.457,59.793-17.453,62.5-30.506
				c0.658-3.18-2.48-11.154-7.6-21.393c13.049,9.068,24.814,15.699,31.163,15.557C275.464,211.417,298.587,152.836,291.291,130.664z
				"/>
			<g>
				<path fill="#009E88" d="M277.859,101.696c-11.246,23.917-103,23.25-103,23.25l-19.771-28.75c0,0,49.547-70.734,78.25-79.25
					C256.09,10.196,289.105,77.78,277.859,101.696z"/>
				<path opacity="0.7" fill="#360052" enable-background="new    " d="M172.256,102.008l-35.167-6.593
					c0,0-20.724-54.067-11.051-78.311s67.157-8.953,70.282,6.729C199.445,39.518,172.256,102.008,172.256,102.008z"/>
				<path opacity="0.7" fill="#360052" enable-background="new    " d="M255.674,211.86c-19.79,0.441-92.182-64.885-92.182-64.885
					l-5.426-43.661c0,0,125.93,5.176,133.225,27.349C298.587,152.836,275.464,211.417,255.674,211.86z"/>
				<path opacity="0.7" fill="#360052" enable-background="new    " d="M179.268,204.446c-19.082-5.92-38.658-62.25-38.658-62.25
					l38.408-30.623c0,0,53.342,35.623,56.592,51.873S198.352,210.366,179.268,204.446z"/>
				<path opacity="0.7" fill="#360052" enable-background="new    " d="M169.609,248.202
					c-24.803-8.457-37.324-118.727-37.324-118.727l41.324-18.591c0,0,61.205,93.759,58.5,106.812
					C229.402,230.749,194.411,256.657,169.609,248.202z"/>
				<path opacity="0.7" fill="#360052" enable-background="new    " d="M180.859,142.946c0,0-32.774,104.539-71.03,101.75
					s-70.759-45.244-69.72-67s88.5-66.812,88.5-66.812L180.859,142.946z"/>
				<path opacity="0.7" fill="#360052" enable-background="new    " d="M138.109,139.983c0,0-107,39.213-118.75,28.213
					s-19.93-56.939,0.25-67.236c20.179-10.297,103.856,13.078,103.856,13.078L138.109,139.983z"/>
				<path opacity="0.7" fill="#360052" enable-background="new    " d="M165.859,79.446l-33.574,58c0,0-73.86,1.642-89.926-25.25
					c-11.5-19.25,4.768-86.653,41-90.5C119.591,17.849,165.859,79.446,165.859,79.446z"/>
				<path opacity="0.7" fill="#360052" enable-background="new    " d="M245.359,99.196c-5.51,12.984-64.5,16.94-64.5,16.94
					l-6-22.69c0,0,23.838-46.759,40.322-43.75C231.665,52.705,250.868,86.211,245.359,99.196z"/>
				<path opacity="0.7" fill="#360052" enable-background="new    " d="M147.27,145.528c0,0-10.422,41.605-26.871,47.023
					c-16.448,5.42-35.041-19.89-35.057-29.716c-0.016-9.825,48.975-30.085,48.975-30.085L147.27,145.528z"/>
			</g>
			<path fill="#3D0042" d="M114.395,247.511c-1.512,0.219-3.033,0.297-4.564,0.186c-1.146-0.084-2.286-0.205-3.421-0.357
				c-0.644,9.092-2.597,20.756-0.451,22.773c2.833,2.666,9.651,2.834,10.485,1.334s2.5-6.834,0-16.168
				C115.615,252.187,114.936,249.651,114.395,247.511z"/>
			<path fill="#3D0042" d="M192.082,251.21c-3.066,0.811-6.152,1.336-9.204,1.541c-0.551,8.484-1.837,17.021-0.019,18.732
				c2.832,2.666,9.479-0.49,10.312-1.99s2.562-4.84,0.062-14.174C192.834,253.825,192.449,252.468,192.082,251.21z"/>
			<g>
				<path fill="#FFFFFF" d="M122.735,73.251c-17.54,10.961-28.97,27.214-28.97,32.481s10.24,11.705,15.801,11.412
					c5.561-0.292,15.217-22.239,12.876-14.046c-2.341,8.195-4.39,11.705-2.926,29.848c1.463,18.143,8.778,20.484,15.216,24.287
					c6.439,3.806,20.778,5.854,27.215,5.854c6.438,0,14.34-0.878,23.039-5.562c8.702-4.682,17.637-12.289,19.1-29.848
					c1.463-17.558-19.1-42.724-19.1-42.724s14.711,8.779,19.686,9.071c4.974,0.293,7.314-3.803,8.484-8.778
					c1.172-4.974,1.172-11.12-16.68-19.898c-17.85-8.78-32.189-7.609-40.09-6.146C148.486,60.666,140.683,62.033,122.735,73.251z"/>
				<ellipse fill="#360052" cx="167.201" cy="105.155" rx="3.334" ry="6.582"/>
				<path fill="#360052" d="M168.574,148.196c0.045,1.84-3.453,7.128-7.082,6.873c-8.916-0.623-14.142-5.949-14.188-7.791
					c-0.045-1.84,9.951,2.203,13.585,2.113C164.526,149.304,168.529,146.354,168.574,148.196z"/>
				<ellipse fill="#360052" cx="154.283" cy="105.737" rx="3.625" ry="7.176"/>
			</g>
		</g>
	</g>
</g>
</svg>
