<?xml version="1.0" encoding="utf-8"?>
<!-- Generator: Adobe Illustrator 16.0.4, SVG Export Plug-In . SVG Version: 6.00 Build 0)  -->
<!DOCTYPE svg PUBLIC "-//W3C//DTD SVG 1.1//EN" "http://www.w3.org/Graphics/SVG/1.1/DTD/svg11.dtd">
<svg version="1.1" id="Calque_1" xmlns="http://www.w3.org/2000/svg" xmlns:xlink="http://www.w3.org/1999/xlink" x="0px" y="0px"
	 width="300px" height="300px" viewBox="0 0 300 300" enable-background="new 0 0 300 300" xml:space="preserve">
<g>
	<ellipse opacity="0.2" enable-background="new    " cx="149.402" cy="281.475" rx="110.688" ry="4.276"/>
	<g>
		<path fill="#FFFFFF" d="M291.291,140.47c-2.213-6.727-15.354-11.887-32.575-15.814c9.354-3.237,16.49-7.511,19.144-13.153
			c11.246-23.916-21.77-91.5-44.52-84.75c-11.967,3.551-27.555,17.916-41.666,33.461c3.449-11.314,5.668-21.444,4.646-26.572
			c-3.125-15.683-60.609-30.974-70.282-6.729c-2.162,5.418-2.804,12.328-2.498,19.789c-12.958-9.566-27.212-16.575-40.181-15.198
			c-29.938,3.179-46.242,49.745-44.52,76.689c-8.24-0.234-15.081,0.457-19.23,2.574c-20.18,10.297-12,56.236-0.25,67.236
			c3.078,2.884,12.701,2.313,25.221-0.09c-2.707,3.493-4.335,6.742-4.471,9.59c-1.039,21.757,31.463,64.212,69.72,67
			c14.295,1.042,27.823-12.903,39.164-30.778c5.516,17.469,12.39,31.479,20.616,34.283c24.802,8.457,59.793-17.453,62.5-30.505
			c0.658-3.18-2.48-11.155-7.6-21.394c13.049,9.068,24.814,15.699,31.163,15.558C275.464,221.223,298.587,162.643,291.291,140.47z"
			/>
		<g>
			<path fill="#009E88" d="M277.859,111.501c-11.246,23.916-103,23.25-103,23.25l-19.771-28.75c0,0,49.547-70.734,78.25-79.25
				C256.09,20.001,289.105,87.585,277.859,111.501z"/>
			<path opacity="0.7" fill="#360052" enable-background="new    " d="M172.256,111.814l-35.167-6.593
				c0,0-20.724-54.067-11.051-78.311s67.157-8.953,70.282,6.729C199.445,49.324,172.256,111.814,172.256,111.814z"/>
			<path opacity="0.7" fill="#360052" enable-background="new    " d="M255.674,221.666c-19.79,0.441-92.182-64.885-92.182-64.885
				l-5.426-43.661c0,0,125.93,5.176,133.225,27.349C298.587,162.643,275.464,221.223,255.674,221.666z"/>
			<path opacity="0.7" fill="#360052" enable-background="new    " d="M179.268,214.252c-19.082-5.92-38.658-62.25-38.658-62.25
				l38.408-30.623c0,0,53.342,35.623,56.592,51.873S198.352,220.172,179.268,214.252z"/>
			<path opacity="0.7" fill="#360052" enable-background="new    " d="M169.609,258.008
				c-24.803-8.457-37.324-118.726-37.324-118.726l41.324-18.592c0,0,61.205,93.76,58.5,106.812
				C229.402,240.555,194.411,266.463,169.609,258.008z"/>
			<path opacity="0.7" fill="#360052" enable-background="new    " d="M180.859,152.752c0,0-32.774,104.539-71.03,101.75
				s-70.759-45.244-69.72-67s88.5-66.812,88.5-66.812L180.859,152.752z"/>
			<path opacity="0.7" fill="#360052" enable-background="new    " d="M138.109,149.789c0,0-107,39.213-118.75,28.213
				s-19.93-56.939,0.25-67.236c20.179-10.297,103.856,13.078,103.856,13.078L138.109,149.789z"/>
			<path opacity="0.7" fill="#360052" enable-background="new    " d="M165.859,89.251l-33.574,58c0,0-73.86,1.643-89.926-25.25
				c-11.5-19.25,4.768-86.653,41-90.5C119.591,27.655,165.859,89.251,165.859,89.251z"/>
			<path opacity="0.7" fill="#360052" enable-background="new    " d="M245.359,109.001c-5.51,12.984-64.5,16.94-64.5,16.94
				l-6-22.69c0,0,23.838-46.759,40.322-43.75C231.665,62.511,250.868,96.017,245.359,109.001z"/>
			<path opacity="0.7" fill="#360052" enable-background="new    " d="M147.27,155.334c0,0-10.422,41.605-26.871,47.024
				c-16.448,5.419-35.041-19.89-35.057-29.716s48.975-30.086,48.975-30.086L147.27,155.334z"/>
		</g>
		<path fill="#3D0042" d="M114.395,257.316c-1.512,0.219-3.033,0.297-4.564,0.186c-1.146-0.084-2.286-0.205-3.421-0.357
			c-0.644,9.093-2.597,20.756-0.451,22.773c2.833,2.667,9.651,2.834,10.485,1.334s2.5-6.834,0-16.167
			C115.615,261.992,114.936,259.457,114.395,257.316z"/>
		<path fill="#3D0042" d="M192.082,261.016c-3.066,0.811-6.152,1.336-9.204,1.541c-0.551,8.485-1.837,17.021-0.019,18.732
			c2.832,2.667,9.479-0.49,10.312-1.99s2.562-4.84,0.062-14.173C192.834,263.631,192.449,262.273,192.082,261.016z"/>
		<g>
			<path fill="#FFFFFF" d="M122.735,83.057c-17.54,10.961-28.97,27.214-28.97,32.481s10.24,11.705,15.801,11.412
				c5.561-0.292,15.217-22.239,12.876-14.046c-2.341,8.195-4.39,11.705-2.926,29.849c1.463,18.142,8.778,20.484,15.216,24.288
				c6.439,3.806,20.778,5.854,27.215,5.854c6.438,0,14.34-0.879,23.039-5.562c8.702-4.682,17.637-12.29,19.1-29.848
				s-19.1-42.724-19.1-42.724s14.711,8.779,19.686,9.071c4.974,0.293,7.314-3.803,8.484-8.778c1.172-4.974,1.172-11.12-16.68-19.898
				c-17.85-8.78-32.189-7.609-40.09-6.146C148.486,70.472,140.683,71.839,122.735,83.057z"/>
			<ellipse fill="#360052" cx="167.201" cy="114.96" rx="3.334" ry="6.582"/>
			<path fill="#360052" d="M168.574,158.002c0.045,1.84-3.453,7.129-7.082,6.874c-8.916-0.624-14.142-5.95-14.188-7.791
				c-0.045-1.84,9.951,2.202,13.585,2.112C164.526,159.109,168.529,156.161,168.574,158.002z"/>
			<ellipse fill="#360052" cx="154.283" cy="115.542" rx="3.625" ry="7.176"/>
		</g>
	</g>
</g>
</svg>
