<?xml version="1.0" encoding="utf-8"?>
<!-- Generator: Adobe Illustrator 16.0.4, SVG Export Plug-In . SVG Version: 6.00 Build 0)  -->
<!DOCTYPE svg PUBLIC "-//W3C//DTD SVG 1.1//EN" "http://www.w3.org/Graphics/SVG/1.1/DTD/svg11.dtd">
<svg version="1.1" id="Calque_1" xmlns="http://www.w3.org/2000/svg" xmlns:xlink="http://www.w3.org/1999/xlink" x="0px" y="0px"
	 width="615.419px" height="223.905px" viewBox="0 0 615.419 223.905" enable-background="new 0 0 615.419 223.905"
	 xml:space="preserve">
<g>
	<g>
		<path fill="#3D0042" d="M38.356,51.364c0-10.532,4.545-19.29,13.648-26.264c9.094-6.979,20.347-10.466,33.759-10.466
			c10.392,0,18.498,2.119,24.315,6.358c5.819,4.244,8.723,10.331,8.723,18.263c0,6.158-1.538,11.158-4.614,14.986
			c-3.081,3.828-7.154,5.742-12.215,5.742c-1.914,0-3.658-0.341-5.231-1.022c-1.573-0.686-2.976-1.778-4.208-3.281
			c2.732-1.644,4.96-4.109,6.669-7.391c1.713-3.282,2.564-6.704,2.564-10.261c0-4.379-1.297-7.761-3.9-10.156
			c-2.601-2.395-6.36-3.592-11.285-3.592c-5.882,0-10.502,1.644-13.849,4.925c-3.357,3.282-5.03,7.866-5.03,13.748
			c0,4.79,1.232,9.339,3.692,13.648c2.465,4.309,7.801,10.09,16.008,17.34c10.808,9.44,17.92,17.616,21.342,24.526
			c3.417,6.909,5.13,14.604,5.13,23.087c0,15.597-5.403,28.048-16.21,37.352c-10.811,9.305-24.629,13.954-41.456,13.954
			c-13.409,0-24.009-3.082-31.805-9.234c-7.801-6.157-11.699-14.846-11.699-26.063c0-9.851,2.938-17.922,8.82-24.22
			c5.883-6.288,12.994-9.439,21.342-9.439c5.195,0,9.441,1.203,12.721,3.593c3.287,2.395,5.063,5.717,5.336,9.955
			c-7.112,0-12.894,1.709-17.341,5.131c-4.443,3.417-6.668,8.142-6.668,14.159c0,5.746,1.778,10.466,5.336,14.164
			c3.557,3.688,8.342,5.536,14.364,5.536c7.114,0,12.861-2.46,17.24-7.385c4.374-4.931,6.571-11.564,6.571-19.911
			c0-6.429-1.44-12.581-4.316-18.468c-2.868-5.883-8.82-13.749-17.852-23.599c-8.204-8.753-13.578-15.632-16.105-20.622
			C39.619,61.454,38.356,56.429,38.356,51.364z"/>
		<path fill="#3D0042" d="M174.005,146.589c0-2.465,0.306-5.541,0.92-9.238c0.616-3.693,1.876-9.57,3.795-17.646
			c1.914-7.801,3.149-13.407,3.692-16.83c0.547-3.417,0.822-6.293,0.822-8.617c0-3.422-0.651-6.022-1.949-7.801
			c-1.303-1.774-3.182-2.666-5.642-2.666c-3.286,0-6.468,1.949-9.544,5.848c-3.077,3.897-5.101,7.971-6.053,12.21l-14.164,66.696
			h-29.551l29.756-139.551l30.372-4.104l-11.075,51.716c3.417-3.828,7.107-6.703,11.075-8.617c3.969-1.914,8.28-2.877,12.932-2.877
			c7.25,0,12.859,1.984,16.832,5.953c3.964,3.968,5.945,9.715,5.945,17.24c0,3.151-0.374,6.874-1.125,11.183
			c-0.752,4.309-2.225,10.912-4.409,19.806c-1.783,6.975-2.946,11.904-3.492,14.775s-0.819,5.271-0.819,7.185
			c0,2.871,0.687,5.025,2.055,6.464c1.367,1.438,3.417,2.154,6.157,2.154c3.415,0,6.36-1.157,8.82-3.487
			c2.466-2.325,5.267-7.185,8.41-14.57h8.623c-4.379,12.722-9.68,22.236-15.908,28.523c-6.228,6.299-13.643,9.439-22.266,9.439
			c-7.66,0-13.612-2.079-17.852-6.252C176.125,159.346,174.005,153.704,174.005,146.589z"/>
		<path fill="#3D0042" d="M302.063,83.79c0,11.358-4.654,21.238-13.954,29.651c-9.309,8.417-20.387,12.966-33.248,13.647
			c-0.135,2.33-0.24,4.073-0.306,5.236c-0.07,1.162-0.105,2.154-0.105,2.976c0,6.293,1.058,10.742,3.182,13.338
			c2.119,2.6,5.982,3.897,11.594,3.897c6.434,0,12.346-1.463,17.752-4.409c5.406-2.94,11.599-8.382,18.573-16.318h6.979
			c-7.937,12.866-16.555,22.406-25.858,28.629c-9.305,6.228-19.495,9.339-30.578,9.339c-10.534,0-18.508-2.735-23.906-8.206
			c-5.403-5.472-8.106-13.613-8.106-24.426c0-7.796,1.229-16.073,3.689-24.831c2.465-8.753,5.747-16.554,9.855-23.393
			c5.058-8.212,11.113-14.399,18.157-18.573c7.05-4.174,14.951-6.258,23.704-6.258c7.527,0,13.167,1.608,16.937,4.824
			C300.18,72.127,302.063,77.086,302.063,83.79z M281.13,74.962c-4.654,0-9.339,4.144-14.059,12.421
			c-4.72,8.276-8.242,18.228-10.566,29.861c7.931-0.546,14.875-4.209,20.827-10.982c5.953-6.77,8.929-14.395,8.929-22.882
			c0-2.872-0.411-4.991-1.232-6.358C284.207,75.648,282.909,74.962,281.13,74.962z"/>
		<path fill="#3D0042" d="M380.865,83.79c0,11.358-4.654,21.238-13.954,29.651c-9.309,8.417-20.387,12.966-33.248,13.647
			c-0.135,2.33-0.24,4.073-0.306,5.236c-0.067,1.162-0.105,2.154-0.105,2.976c0,6.293,1.058,10.742,3.182,13.338
			c2.12,2.6,5.982,3.897,11.594,3.897c6.437,0,12.346-1.463,17.754-4.409c5.404-2.94,11.597-8.382,18.571-16.318h6.981
			c-7.938,12.866-16.554,22.406-25.858,28.629c-9.304,6.228-19.497,9.339-30.577,9.339c-10.537,0-18.511-2.735-23.909-8.206
			c-5.403-5.472-8.104-13.613-8.104-24.426c0-7.796,1.23-16.073,3.69-24.831c2.465-8.753,5.744-16.554,9.855-23.393
			c5.058-8.212,11.112-14.399,18.157-18.573c7.049-4.174,14.95-6.258,23.701-6.258c7.527,0,13.169,1.608,16.937,4.824
			C378.981,72.127,380.865,77.086,380.865,83.79z M359.933,74.962c-4.655,0-9.34,4.144-14.06,12.421
			c-4.72,8.276-8.242,18.228-10.566,29.861c7.934-0.546,14.878-4.209,20.828-10.982c5.952-6.77,8.928-14.395,8.928-22.882
			c0-2.872-0.411-4.991-1.232-6.358C363.009,75.648,361.711,74.962,359.933,74.962z"/>
		<path fill="#3D0042" d="M396.662,212.465l-30.988,7.385l34.275-161.507H429.5l-3.287,15.392c3.423-2.876,7.115-5.061,11.083-6.573
			c3.968-1.503,8.277-2.255,12.932-2.255c8.207,0,14.43,2.736,18.674,8.207c4.235,5.477,6.36,13.548,6.36,24.22
			c0,20.928-4.484,38.238-13.442,51.917c-8.961,13.683-21.31,20.521-37.039,20.521c-4.379,0-8.041-0.611-10.982-1.849
			c-2.941-1.232-5.096-3.076-6.464-5.541L396.662,212.465z M410.621,147.2c0.541,1.509,1.503,2.671,2.871,3.492
			c1.368,0.816,3.006,1.228,4.925,1.228c8.618,0,15.562-5.541,20.828-16.619c5.266-11.083,7.901-23.944,7.901-38.584
			c0-5.611-0.817-9.851-2.46-12.721c-1.644-2.877-4.244-4.314-7.802-4.314c-2.46,0-4.995,0.922-7.59,2.771
			c-2.601,1.85-4.79,4.279-6.568,7.285L410.621,147.2z"/>
		<path fill="#009E88" d="M479.567,145.151c0-1.779,0.141-3.798,0.411-6.058c0.275-2.255,0.687-4.68,1.232-7.285l13.951-65.875
			h29.554l-14.775,69.778c-0.278,1.228-0.481,2.359-0.616,3.382c-0.141,1.027-0.203,2.089-0.203,3.182
			c0,2.735,0.646,4.685,1.949,5.847c1.297,1.163,3.454,1.744,6.466,1.744c3.827,0,7.452-1.669,10.874-5.025
			c3.417-3.353,5.953-7.696,7.591-13.032h8.623c-4.379,12.451-10.261,21.891-17.651,28.318c-7.388,6.434-15.875,9.649-25.45,9.649
			c-6.844,0-12.21-2.159-16.105-6.468C481.521,159.005,479.567,152.947,479.567,145.151z M531.9,38.643
			c0,4.514-1.608,8.347-4.82,11.488c-3.217,3.152-7.079,4.72-11.599,4.72c-4.515,0-8.342-1.568-11.488-4.72
			c-3.151-3.146-4.72-6.974-4.72-11.488c0-4.52,1.568-8.382,4.72-11.599c3.146-3.212,6.974-4.82,11.488-4.82
			c4.52,0,8.385,1.608,11.599,4.82C530.292,30.26,531.9,34.123,531.9,38.643z"/>
		<path fill="#009E88" d="M543.188,65.934h6.776l6.155-28.318l30.372-4.108l-6.979,32.427h12.315l-1.644,8.212H577.87
			l-13.133,61.566c-0.275,1.228-0.48,2.359-0.616,3.382c-0.135,1.027-0.205,2.089-0.205,3.182c0,2.735,0.646,4.685,1.949,5.847
			c1.305,1.163,3.459,1.744,6.468,1.744c3.828,0,7.456-1.669,10.873-5.025c3.422-3.353,5.952-7.696,7.595-13.032h8.618
			c-4.379,12.451-10.261,21.891-17.646,28.318c-7.39,6.434-15.875,9.645-25.447,9.645c-6.844,0-12.212-2.154-16.113-6.463
			c-3.9-4.309-5.847-10.361-5.847-18.162c0-1.774,0.136-3.793,0.411-6.053s0.687-4.685,1.232-7.285l12.311-57.663h-6.771
			L543.188,65.934z"/>
	</g>
</g>
</svg>
