<?xml version="1.0" encoding="utf-8"?>
<!-- Generator: Adobe Illustrator 16.0.4, SVG Export Plug-In . SVG Version: 6.00 Build 0)  -->
<!DOCTYPE svg PUBLIC "-//W3C//DTD SVG 1.1//EN" "http://www.w3.org/Graphics/SVG/1.1/DTD/svg11.dtd">
<svg version="1.1" id="Calque_1" xmlns="http://www.w3.org/2000/svg" xmlns:xlink="http://www.w3.org/1999/xlink" x="0px" y="0px"
	 width="1920px" height="337.35px" viewBox="0 0 678.5 119.213" enable-background="new 0 0 678.5 119.213" xml:space="preserve">
<g opacity="0.1">
	<path fill="#009E88" d="M674.295,83.097c-2.754,0.341-5.536,0.511-8.318,0.681c0.213-0.628,0.426-1.257,0.628-1.878
		c0.306-0.863,0.658-1.695,0.965-2.523c0.156-0.414,0.312-0.823,0.465-1.225c0.171-0.396,0.34-0.788,0.505-1.171
		c0.329-0.773,0.646-1.521,0.95-2.234c0.297-0.721,0.639-1.382,0.925-2.029c0.589-1.283,1.086-2.443,1.545-3.383
		c0.883-1.899,1.329-3.096,1.17-3.215c-0.022-0.017-0.056-0.021-0.094-0.021c0,0-0.003,0.004-0.003,0.005
		c-0.347,0.009-1.31,0.751-2.718,2.069c-0.797,0.72-1.662,1.666-2.637,2.757c-0.479,0.551-1.014,1.116-1.512,1.757
		c-0.502,0.64-1.022,1.314-1.559,2.021c-0.267,0.354-0.544,0.711-0.812,1.085c-0.255,0.383-0.514,0.772-0.774,1.167
		c-0.516,0.797-1.07,1.604-1.578,2.465c-0.489,0.875-0.983,1.772-1.478,2.688c-0.26,0.452-0.474,0.933-0.692,1.416
		c-0.117,0.263-0.236,0.527-0.354,0.791c-0.716,0.076-1.43,0.16-2.142,0.259c0.098-0.457,0.196-0.909,0.305-1.351
		c0.646-2.804,1.311-5.317,1.874-7.401c4.854-1.604,8.237-5.109,11.564-9.048c0.559-0.661,0.051-1.864-0.905-1.555
		c-6.356,2.054-13.217,1.085-19.496,3.437c1.493-3.225,2.683-5.192,2.447-5.376c-0.021-0.02-0.055-0.025-0.095-0.023l-0.004,0.005
		c-0.161,0.004-0.464,0.162-0.904,0.471c-0.275,0.193-0.6,0.444-0.973,0.747c-0.368,0.307-0.758,0.688-1.199,1.108
		c-1.446,1.406-3.233,3.485-4.981,6.15c-1.483,1.096-2.808,2.38-3.871,3.857c0.097-0.649,0.198-1.298,0.309-1.945
		c0.501-2.915,1.153-5.771,1.932-8.573c0.061-0.034,0.119-0.083,0.17-0.155c0.893-1.278,1.906-2.402,3.006-3.42
		c1.437-0.923,2.995-1.555,4.635-2.029c3.287-0.949,6.718-1.543,9.788-3.117c5.455-2.798,9.491-6.773,10.418-13.025
		c0.101-0.681-0.416-1.432-1.19-1.189c-5.648,1.765-11.433,4.016-16.38,7.31c-3.094,2.06-5.675,4.476-7.748,7.339
		c0.96-2.583,2.015-5.128,3.144-7.646c3.355-3.89,7.26-7.386,9.825-11.857c2.944-5.131,4.499-10.874,6.041-16.543
		c0.146-0.541-0.486-1.105-0.991-0.761c-4.267,2.913-8.51,6.353-10.858,11.075c-1.311,2.634-1.916,5.395-2.496,8.263
		c-0.397,1.962-1.011,3.974-1.44,5.982c-2.348,4.532-4.363,9.241-5.979,14.078c0.021-4.43-0.219-8.788-2.254-12.941
		c-1.381-2.817-3.338-5.295-4.741-8.093c-1.284-2.563-2.272-5.307-3.775-7.75c-0.405-0.658-1.291-0.471-1.541,0.201
		c-2.246,6.034-2.269,12.937,1.665,18.313c2.231,3.046,5.245,5.768,7.312,8.956c-0.001,0.143,0,0.285-0.005,0.427
		c-0.016,0.475,0.359,0.794,0.767,0.859c0.474,0.879,0.864,1.798,1.14,2.772c0.029,0.55,0.058,1.1,0.087,1.646
		c-0.973,3.486-1.737,7.03-2.265,10.616c-0.818-3.921-2.645-7.727-5.43-10.205c-1.166-1.038-2.471-1.852-3.803-2.621
		c0.05-0.233,0.057-0.378,0.001-0.409c-0.024-0.015-0.06-0.012-0.102-0.001c0,0-0.004,0.006-0.004,0.007
		c-0.072,0.021-0.17,0.078-0.292,0.176c-0.863-0.492-1.733-0.977-2.581-1.496c0.154-0.482,0.21-0.77,0.143-0.813
		c-0.097-0.062-0.347,0.099-0.721,0.444c-0.155-0.1-0.312-0.196-0.463-0.298c-0.505-0.411-1.023-0.806-1.557-1.186
		c-2.213-1.922-3.782-4.435-6.353-5.983c-0.513-0.309-1.08,0.098-1.12,0.644c-0.372,5.103,0.924,10.141,4.164,13.995
		c-0.427,0.726-0.855,1.509-1.282,2.328c-0.737-3.175-1.676-6.175-2.784-8.86c-0.553-1.262-1.052-2.483-1.655-3.597
		c-0.289-0.56-0.57-1.107-0.847-1.641c-0.307-0.515-0.605-1.018-0.896-1.505c-0.298-0.483-0.562-0.961-0.863-1.399
		c-0.303-0.437-0.595-0.857-0.876-1.263c-0.283-0.4-0.556-0.787-0.818-1.155c-0.283-0.353-0.557-0.689-0.815-1.01
		c-0.525-0.632-0.975-1.209-1.418-1.675c-0.447-0.464-0.833-0.853-1.153-1.162c-0.643-0.618-1.025-0.918-1.104-0.857
		c-0.023,0.018-0.032,0.055-0.035,0.103l0.005,0.007c-0.011,0.194,0.13,0.622,0.417,1.271c0.179,0.404,0.411,0.889,0.691,1.445
		c0.279,0.558,0.551,1.225,0.89,1.937c1.323,2.868,2.979,6.967,4.154,11.896c1.088,4.577,1.719,9.857,1.832,15.37
		c-0.604-0.272-1.428,0.241-1.416,0.94c0.048,2.995,0.112,6.067,0.838,8.877c-0.057,0.33-0.121,0.656-0.17,0.988
		c-0.795,4.963-1.01,10.125-0.779,15.005c-0.056,0.56-0.11,1.124-0.164,1.677l-5.889-2.915c0.085-4.239,0.409-8.758,0.871-13.192
		c0.446-4.517,1.175-8.923,1.778-12.816c1.302-7.773,2.348-13.443,1.939-13.577c-0.027-0.01-0.061-0.002-0.098,0.014
		c0,0-0.003,0.008-0.003,0.009c-0.709,0.331-3.407,5.2-6.216,12.341c-0.961,2.534-1.961,5.352-2.833,8.353
		c0.407-4.06,0.971-7.983,1.563-11.499c1.476-8.562,3.033-14.736,2.623-14.889c-0.026-0.01-0.062-0.002-0.102,0.015l-0.003,0.007
		c-0.158,0.072-0.412,0.356-0.755,0.849c-0.434,0.616-0.995,1.544-1.639,2.741c-1.294,2.395-2.931,5.87-4.507,10.08
		c-1.562,4.21-3.066,9.16-4.073,14.418c-0.501,2.552-0.877,5.177-1.121,7.802c-0.17,0.179-0.344,0.352-0.51,0.539
		c-0.351,0.369-0.687,0.763-1.018,1.164c0.433-4.582,0.903-9.074,1.249-13.04c0.354-4.013,0.581-7.486,0.643-9.959
		c0.066-2.474-0.026-3.947-0.218-3.98c-0.028-0.005-0.061,0.008-0.097,0.029c0,0-0.001,0.006-0.001,0.007
		c-0.316,0.199-0.891,1.487-1.662,3.572c-0.583,1.581-1.28,3.619-2.036,5.979c0.063-0.63,0.128-1.255,0.182-1.871
		c0.05-0.551,0.101-1.094,0.149-1.629c0.071-0.534,0.14-1.059,0.207-1.574c1.042-8.281,2.275-14.3,1.84-14.438
		c-0.027-0.009-0.061-0.001-0.099,0.017c0,0-0.002,0.007-0.002,0.008c-0.344,0.163-1.115,1.43-2.186,3.539
		c-0.615,1.163-1.229,2.614-1.916,4.271c-0.17,0.415-0.346,0.842-0.525,1.28c-0.178,0.44-0.367,0.89-0.523,1.363
		c-0.325,0.943-0.665,1.931-1.018,2.954c-0.172,0.515-0.354,1.037-0.522,1.572c-0.15,0.541-0.306,1.091-0.461,1.647
		c-0.242,0.897-0.5,1.82-0.739,2.761c0.01-0.119,0.021-0.244,0.03-0.359c0.04-0.589,0.078-1.135,0.136-1.626
		c0.194-1.971,0.216-3.186,0.026-3.248c-0.027-0.01-0.06-0.005-0.096,0.007c0,0-0.002,0.005-0.002,0.006
		c-0.264,0.089-0.757,0.754-1.416,1.887c-0.065-1.499-0.054-3-0.009-4.5c0.785-5.961,1.882-10.019,1.522-10.162
		c-0.026-0.011-0.061-0.006-0.099,0.008c0,0-0.002,0.005-0.002,0.006c-0.105,0.037-0.252,0.159-0.443,0.377
		c0.316-1.935,0.685-3.86,1.115-5.774c3.272-6.387,7.615-12.14,10.887-18.547c3.759-7.362,4.874-15.13,0.966-22.694
		c-0.308-0.597-1.101-0.241-1.151,0.319c-0.259,2.845-1.085,5.729-2.01,8.42c-3.079,8.952-6.661,17.672-9.131,26.836
		c-0.682,2.532-1.3,5.095-1.821,7.68c-1.403-9.188-7.056-17.264-10.326-26c-0.23-0.82-0.502-1.634-0.842-2.436
		c-0.327-0.775-1.553-0.508-1.305,0.355c0.363,1.267,0.787,2.51,1.251,3.736c1.062,4.648,0.691,9.577,2.15,14.173
		c0.976,3.073,2.733,5.526,4.449,8.212c0.954,1.491,1.945,3.021,2.512,4.711c0.552,1.644,0.652,3.263,0.787,4.954
		c-1.085,2.095-2.293,4.881-3.332,8.198c-1.227,3.942-2.191,8.624-2.534,13.518c-0.36,4.726-0.139,9.627,0.56,14.173h-0.927h-0.094
		c-0.088-1.217-0.16-2.443-0.22-3.681c-0.028-0.586-0.062-1.169-0.083-1.758c-0.007-0.191-0.01-0.384-0.017-0.576
		c-0.034-1.045-0.062-2.093-0.077-3.14c-0.025-1.171-0.024-2.338-0.008-3.496c0.031-1.074,0.062-2.14,0.093-3.186
		c0.006-0.161,0.007-0.323,0.01-0.483c0.096-2.336,0.236-4.6,0.363-6.73c0.013-0.179,0.026-0.352,0.04-0.528
		c0.152-1.901,0.295-3.678,0.424-5.292c0.16-1.896,0.302-3.57,0.399-4.957c0.094-1.17,0.14-2.132,0.137-2.846
		c0-0.129-0.001-0.249-0.004-0.361c0-0.003,0-0.006-0.001-0.009c-0.013-0.506-0.06-0.839-0.15-0.975
		c-0.002-0.003-0.003-0.008-0.004-0.01l-0.001,0.004c-0.022-0.031-0.043-0.065-0.069-0.074c-0.77-0.257-4.278,5.11-7.47,13.543
		c-0.561,1.547-1.121,3.197-1.646,4.928c-0.007-0.052-0.014-0.104-0.021-0.155c-0.027-0.198-0.053-0.397-0.081-0.594
		c-0.037-0.25-0.078-0.497-0.117-0.745c-0.052-0.333-0.101-0.67-0.156-0.999c-0.149-0.771-0.299-1.526-0.458-2.272
		c-0.054-0.252-0.112-0.497-0.17-0.746c-0.053-0.227-0.097-0.459-0.155-0.684c-0.047-0.187-0.092-0.371-0.137-0.557
		c-0.004-0.015-0.008-0.029-0.011-0.044c-0.095-0.394-0.19-0.782-0.305-1.164c-0.031-0.105-0.061-0.207-0.092-0.312
		c-0.108-0.388-0.224-0.768-0.338-1.146c-0.023-0.078-0.047-0.16-0.07-0.238c-0.011-0.034-0.021-0.065-0.032-0.1
		c-0.054-0.173-0.104-0.352-0.158-0.521c-0.064-0.195-0.133-0.379-0.197-0.57c-0.101-0.302-0.202-0.597-0.306-0.889
		c-0.043-0.119-0.086-0.237-0.13-0.355c-0.553-1.518-1.144-2.913-1.741-4.172c-0.001-0.003-0.002-0.005-0.003-0.008
		c-0.196-0.412-0.391-0.81-0.587-1.192c-0.023-0.046-0.046-0.091-0.069-0.137c-0.18-0.349-0.356-0.683-0.533-1.006
		c-0.028-0.05-0.056-0.101-0.083-0.151c-0.277-0.502-0.553-0.985-0.816-1.419c-0.103-0.161-0.197-0.305-0.295-0.458
		c-0.01-0.016-0.021-0.034-0.03-0.049c-0.022-0.034-0.042-0.062-0.063-0.097c-0.116-0.179-0.229-0.35-0.34-0.517
		c-0.094-0.14-0.186-0.276-0.273-0.406c-0.045-0.064-0.09-0.13-0.133-0.192c-0.081-0.116-0.165-0.243-0.243-0.35
		c-0.048-0.062-0.088-0.112-0.135-0.171c-0.079-0.106-0.155-0.198-0.231-0.295c-0.061-0.074-0.12-0.148-0.177-0.218
		c-0.028-0.033-0.06-0.075-0.087-0.107c-0.044-0.053-0.08-0.092-0.122-0.142c-0.046-0.053-0.097-0.117-0.14-0.166
		c-0.025-0.029-0.046-0.049-0.071-0.076c-0.047-0.052-0.09-0.097-0.133-0.144c-0.072-0.078-0.144-0.152-0.207-0.215
		c-0.033-0.031-0.062-0.057-0.093-0.085c-0.062-0.057-0.122-0.109-0.175-0.149c-0.025-0.02-0.046-0.031-0.069-0.046
		c-0.046-0.03-0.091-0.058-0.126-0.069c-0.005-0.002-0.013-0.009-0.018-0.01c0,0,0.003,0.007,0.003,0.008
		c-0.037-0.011-0.076-0.023-0.102-0.012c-0.196,0.091-0.272,0.56-0.241,1.332c0.016,0.386,0.057,0.848,0.123,1.376
		c0.052,0.534,0.111,1.142,0.197,1.804c0.323,2.662,0.748,6.331,0.886,10.551c0.088,3.241,0.01,6.802-0.272,10.48
		c-0.017,0.014-0.034,0.028-0.047,0.053l0.002,0.004c-0.003,0.005-0.008,0.006-0.011,0.012c-0.055-0.425-0.09-0.854-0.151-1.278
		c-0.377-2.74-0.952-5.427-1.608-7.975c-0.648-2.552-1.499-4.95-2.353-7.144c-1.78-4.38-3.869-7.849-5.544-10.128
		c-0.425-0.567-0.8-1.078-1.151-1.504c-0.363-0.421-0.68-0.774-0.944-1.055c-0.528-0.562-0.854-0.834-0.938-0.781
		c-0.057,0.037-0.067,0.16-0.043,0.348c-2.679-3.312-5.394-5.777-7.526-7.427c-1.293-1.057-2.426-1.757-3.198-2.235
		c-0.774-0.473-1.221-0.688-1.284-0.611c-0.019,0.021-0.02,0.061-0.011,0.107c0,0,0.006,0.006,0.007,0.006
		c0.032,0.193,0.27,0.585,0.706,1.166c0.537,0.727,1.396,1.694,2.362,2.998c1.998,2.536,4.659,6.202,6.945,10.822
		c0.607,1.134,1.102,2.375,1.652,3.618c0.27,0.625,0.484,1.285,0.736,1.934c0.122,0.326,0.245,0.654,0.37,0.982
		c0.112,0.334,0.212,0.675,0.32,1.014c0.908,2.695,1.576,5.585,2.099,8.542c0.226,1.181,0.382,2.387,0.539,3.592
		c-0.15-0.299-0.299-0.6-0.461-0.885c-1.876-3.455-3.874-6.149-5.415-7.927c-0.389-0.443-0.729-0.842-1.056-1.171
		c-0.325-0.329-0.61-0.604-0.85-0.821c-0.478-0.435-0.773-0.639-0.855-0.582c-0.024,0.016-0.039,0.048-0.05,0.087l0.001,0.002
		c-0.244,0.73,2.122,5.449,4.021,12.131c0.135,0.434,0.247,0.884,0.364,1.338c0.115,0.454,0.247,0.91,0.357,1.379
		c0.213,0.941,0.453,1.896,0.64,2.884c0.216,0.979,0.374,1.994,0.561,3.01c0.15,1.025,0.32,2.057,0.44,3.106
		c0.53,4.119,0.733,8.389,0.813,12.441l-2.156-1.186c-0.501-4.12-1.32-8.363-2.475-12.426c-1.386-4.96-3.266-9.622-5.243-13.508
		c-1.994-3.886-4.083-6.986-5.706-9.056c-0.41-0.516-0.777-0.976-1.112-1.367c-0.345-0.384-0.646-0.708-0.898-0.965
		c-0.505-0.512-0.817-0.761-0.901-0.707c-0.487,0.314,1.779,5.06,3.9,12.084c-1.775-2.561-3.537-4.586-4.962-5.997
		c-0.459-0.445-0.863-0.847-1.239-1.178c-0.383-0.324-0.714-0.596-0.991-0.808c-0.554-0.427-0.885-0.622-0.961-0.558
		c-0.022,0.02-0.032,0.053-0.038,0.094l0.002,0.002c-0.14,0.787,2.998,5.559,5.556,12.637c0.785,2.164,1.51,4.55,2.158,7.049
		c-0.12-0.198-0.238-0.403-0.359-0.596c-2.067-3.33-4.219-5.881-5.852-7.559c-0.803-0.853-1.507-1.468-2.003-1.876
		c-0.497-0.407-0.804-0.595-0.883-0.534c-0.021,0.018-0.035,0.049-0.044,0.088l0.003,0.004c-0.036,0.159,0.036,0.485,0.212,0.973
		c0.218,0.604,0.604,1.434,1.053,2.483c0.932,2.075,2.232,4.966,3.418,8.386c1.207,3.414,2.256,7.36,2.948,11.484
		c0.185,1.027,0.322,2.074,0.476,3.117c0.122,1.05,0.258,2.097,0.351,3.151c0.172,1.794,0.306,3.577,0.409,5.337
		c-0.12-1.158-0.227-2.334-0.388-3.521c-0.671-4.844-2.001-9.919-3.773-14.644c-1.729-4.747-4.066-9.06-6.262-12.673
		c-2.915-4.646-5.714-8.062-7.408-9.854c0.549-1.259,0.808-2.035,0.681-2.13c-0.022-0.017-0.056-0.021-0.094-0.021
		c0,0-0.003,0.004-0.003,0.005c-0.25,0.006-0.815,0.391-1.644,1.101c-0.316-0.279-0.517-0.41-0.568-0.374
		c-0.017,0.011-0.024,0.038-0.034,0.062c-0.998-1.224-1.986-2.321-2.933-3.288c0.005-0.005,0.009-0.01,0.013-0.015
		c0.559-0.662,0.05-1.865-0.906-1.557c-0.181,0.059-0.364,0.105-0.547,0.16c-0.036-0.034-0.071-0.067-0.107-0.1
		c-0.026-0.024-0.053-0.049-0.079-0.073c-0.409-0.379-0.809-0.74-1.184-1.061c-0.393-0.331-0.756-0.619-1.104-0.888
		c-0.093-0.073-0.181-0.14-0.271-0.209c-0.04-0.03-0.083-0.064-0.123-0.094c-0.122-0.094-0.25-0.194-0.366-0.278
		c-0.262-0.181-0.496-0.335-0.718-0.478c-0.091-0.059-0.175-0.109-0.259-0.161c-0.051-0.032-0.11-0.071-0.158-0.099
		c-0.029-0.017-0.05-0.026-0.077-0.042c-0.061-0.035-0.115-0.065-0.171-0.096c-0.102-0.056-0.196-0.107-0.281-0.147
		c-0.016-0.008-0.029-0.014-0.045-0.021c-0.101-0.047-0.19-0.084-0.266-0.107c-0.012-0.004-0.021-0.005-0.031-0.009
		c-0.064-0.019-0.122-0.031-0.166-0.032c-0.005,0-0.014-0.003-0.018-0.003l0.005,0.006c-0.038,0.002-0.079,0.003-0.1,0.021
		c-0.162,0.145-0.106,0.6,0.13,1.303c0.119,0.353,0.282,0.766,0.487,1.235c0.192,0.478,0.418,1.016,0.682,1.601
		c0.083,0.188,0.173,0.391,0.261,0.591c-3.373,0.51-6.811,0.616-10.168,1.175c0.254-0.544,0.371-0.871,0.283-0.94
		c-0.021-0.02-0.055-0.025-0.097-0.023l-0.004,0.005c-0.162,0.005-0.463,0.162-0.903,0.471c-0.274,0.193-0.6,0.444-0.973,0.747
		c-0.031,0.025-0.065,0.06-0.097,0.087c-1.323,0.299-2.63,0.692-3.909,1.242c-3.401,1.463-6.573,3.638-8.702,6.598
		c0.099-0.65,0.2-1.3,0.31-1.947c0.501-2.915,1.153-5.768,1.931-8.571c0.062-0.035,0.121-0.084,0.171-0.155
		c0.893-1.28,1.906-2.405,3.005-3.42c1.438-0.924,2.996-1.558,4.636-2.03c3.287-0.949,6.718-1.543,9.788-3.118
		c5.456-2.797,9.492-6.773,10.417-13.023c0.102-0.682-0.414-1.432-1.189-1.19c-5.649,1.766-11.433,4.017-16.38,7.31
		c-3.095,2.06-5.675,4.477-7.748,7.34c0.961-2.583,2.016-5.129,3.144-7.647c3.356-3.888,7.26-7.386,9.825-11.857
		c2.945-5.131,4.499-10.874,6.04-16.543c0.146-0.541-0.486-1.105-0.991-0.762c-4.266,2.913-8.509,6.354-10.857,11.076
		c-1.311,2.636-1.916,5.394-2.497,8.264c-0.396,1.963-1.01,3.975-1.438,5.982c-2.349,4.533-4.365,9.241-5.981,14.077
		c0.021-4.43-0.217-8.787-2.254-12.94c-1.379-2.817-3.337-5.294-4.739-8.094c-1.284-2.562-2.273-5.306-3.776-7.749
		c-0.406-0.658-1.291-0.47-1.542,0.201c-2.246,6.034-2.269,12.937,1.667,18.313c2.229,3.048,5.245,5.768,7.311,8.957
		c-0.001,0.143,0,0.284-0.004,0.428c-0.017,0.475,0.359,0.794,0.769,0.858c0.472,0.88,0.862,1.799,1.139,2.772
		c0.028,0.552,0.058,1.1,0.087,1.646c-0.974,3.487-1.737,7.03-2.266,10.615c-0.818-3.919-2.646-7.726-5.43-10.205
		c-2.348-2.089-5.255-3.269-7.821-5.011c-0.506-0.411-1.024-0.806-1.558-1.185c-2.213-1.922-3.78-4.435-6.353-5.983
		c-0.513-0.308-1.08,0.099-1.12,0.643c-0.134,1.839-0.047,3.669,0.265,5.44c-0.004-0.008-0.008-0.016-0.013-0.023
		c-0.307-0.515-0.605-1.018-0.896-1.505c-0.298-0.483-0.561-0.961-0.863-1.399c-0.302-0.437-0.595-0.857-0.876-1.263
		c-0.283-0.4-0.556-0.787-0.818-1.155c-0.283-0.353-0.557-0.689-0.815-1.01c-0.525-0.632-0.976-1.209-1.419-1.675
		c-0.445-0.464-0.831-0.853-1.153-1.162c-0.642-0.618-1.024-0.918-1.103-0.857c-0.022,0.018-0.032,0.055-0.035,0.103
		c0,0,0.005,0.006,0.005,0.007c-0.013,0.194,0.13,0.621,0.417,1.271c0.179,0.404,0.411,0.889,0.691,1.445
		c0.279,0.558,0.551,1.225,0.89,1.937c1.323,2.868,2.979,6.967,4.155,11.896c1.086,4.571,1.716,9.845,1.831,15.35
		c-0.793-0.977-1.554-1.981-2.35-2.943c-0.576-0.695-1.735-0.112-1.723,0.714c0.079,4.903,0.2,10.014,3.214,13.831
		c-0.697,4.724-0.887,9.601-0.669,14.228c-0.014,0.134-0.026,0.269-0.04,0.402l-3.3-4.545c0.231,4.057,0.612,7.902,1.048,11.438
		l-1.22-0.342c-0.007-0.024-0.015-0.047-0.022-0.071c-0.499-1.676-0.946-3.419-1.376-5.186c0.165-0.509,0.332-1.018,0.505-1.522
		l-1.334-2.18c-0.085-0.411-0.172-0.82-0.251-1.234c0.001-0.021,0.001-0.044,0.002-0.065c0.04-0.279,0.078-0.559,0.117-0.837
		l-0.094,0.119c0.146-3.404,0.422-6.93,0.783-10.405c0.446-4.517,1.176-8.923,1.779-12.816c1.301-7.773,2.348-13.443,1.938-13.577
		c-0.026-0.01-0.06-0.002-0.098,0.014c0,0-0.003,0.008-0.003,0.009c-0.708,0.332-3.407,5.201-6.214,12.341
		c-0.962,2.534-1.961,5.351-2.834,8.352c0.408-4.06,0.971-7.982,1.563-11.498c1.475-8.562,3.033-14.736,2.623-14.889
		c-0.027-0.01-0.062-0.002-0.101,0.015l-0.003,0.007c-0.158,0.071-0.412,0.354-0.756,0.849c-0.434,0.616-0.996,1.544-1.64,2.741
		c-1.292,2.395-2.93,5.87-4.505,10.08c-1.563,4.21-3.067,9.16-4.073,14.418c-0.501,2.552-0.879,5.177-1.121,7.803
		c-0.171,0.178-0.344,0.351-0.51,0.538c-0.352,0.369-0.688,0.763-1.019,1.165c0.433-4.581,0.902-9.073,1.249-13.041
		c0.355-4.013,0.581-7.486,0.643-9.959c0.066-2.474-0.026-3.947-0.218-3.98c-0.028-0.005-0.061,0.008-0.096,0.029
		c0,0-0.001,0.006-0.001,0.007c-0.318,0.198-0.893,1.486-1.663,3.572c-0.582,1.58-1.28,3.617-2.036,5.977
		c0.063-0.629,0.128-1.254,0.182-1.869c0.05-0.551,0.102-1.094,0.15-1.629c0.069-0.534,0.138-1.059,0.206-1.574
		c1.043-8.281,2.275-14.3,1.84-14.438c-0.027-0.009-0.061-0.001-0.099,0.017c0,0-0.002,0.007-0.002,0.008
		c-0.343,0.163-1.115,1.43-2.186,3.539c-0.615,1.163-1.229,2.614-1.916,4.271c-0.17,0.415-0.346,0.842-0.524,1.28
		c-0.178,0.44-0.368,0.89-0.524,1.363c-0.326,0.943-0.665,1.931-1.019,2.954c-0.171,0.515-0.354,1.037-0.521,1.572
		c-0.15,0.541-0.305,1.091-0.461,1.647c-0.242,0.899-0.5,1.823-0.74,2.765c0.011-0.12,0.021-0.246,0.031-0.363
		c0.04-0.589,0.078-1.135,0.136-1.626c0.195-1.971,0.216-3.186,0.026-3.248c-0.027-0.01-0.061-0.005-0.096,0.007
		c0,0-0.002,0.005-0.002,0.006c-0.321,0.107-0.979,1.06-1.861,2.672c-0.035,0.062-0.069,0.134-0.104,0.197
		c0.05-0.74,0.101-1.482,0.166-2.191c0.543-5.757,1.564-10.312,1.874-12.327c1.236-1.928,2.377-3.852,3.093-6.109
		c1.459-4.597,1.088-9.525,2.151-14.175c0.463-1.226,0.887-2.468,1.25-3.735c0.247-0.865-0.976-1.131-1.304-0.354
		c-0.341,0.802-0.611,1.614-0.842,2.434c-3.271,8.738-8.924,16.812-10.326,26.001c-0.522-2.584-1.14-5.147-1.823-7.68
		c-2.468-9.164-6.051-17.884-9.13-26.836c-0.924-2.692-1.752-5.576-2.009-8.421c-0.052-0.56-0.844-0.914-1.151-0.318
		c-3.908,7.564-2.793,15.331,0.965,22.694c3.105,6.08,7.163,11.576,10.366,17.579c-1.123,0.658-4.287,5.782-7.195,13.464
		c-0.561,1.548-1.121,3.198-1.646,4.929c-0.01-0.074-0.02-0.148-0.03-0.223c-0.023-0.166-0.044-0.332-0.068-0.496
		c-0.041-0.279-0.085-0.555-0.13-0.831c-0.05-0.314-0.096-0.634-0.148-0.944c-0.034-0.177-0.068-0.347-0.102-0.521
		c-0.004-0.021-0.008-0.04-0.012-0.061c-0.108-0.565-0.223-1.125-0.341-1.677c-0.057-0.265-0.118-0.522-0.178-0.784
		c-0.052-0.219-0.095-0.444-0.15-0.66c-0.044-0.171-0.084-0.341-0.125-0.51c-0.009-0.037-0.019-0.075-0.027-0.112
		c-0.094-0.386-0.188-0.768-0.3-1.143c-0.03-0.104-0.06-0.202-0.09-0.306c-0.119-0.425-0.243-0.84-0.37-1.252
		c-0.014-0.046-0.027-0.094-0.041-0.139c-0.006-0.019-0.012-0.036-0.018-0.055c-0.058-0.188-0.112-0.382-0.172-0.566
		c-0.068-0.211-0.142-0.408-0.212-0.614c-0.091-0.271-0.182-0.535-0.274-0.798c-0.055-0.152-0.108-0.302-0.164-0.452
		c-0.162-0.44-0.325-0.871-0.492-1.292c-0.006-0.015-0.012-0.03-0.019-0.045c-0.392-0.981-0.795-1.903-1.201-2.764
		c-0.01-0.019-0.019-0.037-0.027-0.057c-0.189-0.396-0.377-0.78-0.564-1.148c-0.029-0.057-0.06-0.113-0.088-0.17
		c-0.175-0.34-0.348-0.667-0.521-0.981c-0.03-0.055-0.06-0.109-0.09-0.164c-0.276-0.5-0.551-0.981-0.813-1.415
		c-0.102-0.161-0.196-0.305-0.295-0.458c-0.01-0.016-0.021-0.034-0.03-0.049c-0.022-0.035-0.043-0.064-0.065-0.1
		c-0.11-0.171-0.219-0.335-0.324-0.494c-0.104-0.154-0.204-0.302-0.301-0.445c-0.037-0.055-0.075-0.11-0.111-0.162
		c-0.084-0.12-0.17-0.25-0.251-0.361c-0.049-0.063-0.09-0.114-0.137-0.174c-0.078-0.104-0.151-0.193-0.227-0.288
		c-0.063-0.079-0.126-0.157-0.188-0.231c-0.025-0.031-0.055-0.07-0.08-0.1c-0.037-0.045-0.067-0.077-0.104-0.119
		c-0.052-0.061-0.108-0.132-0.157-0.188c-0.029-0.033-0.052-0.055-0.08-0.086c-0.039-0.044-0.075-0.083-0.112-0.123
		c-0.079-0.084-0.154-0.163-0.223-0.23c-0.03-0.029-0.057-0.052-0.085-0.078c-0.064-0.059-0.125-0.113-0.179-0.154
		c-0.024-0.019-0.045-0.029-0.068-0.044c-0.047-0.03-0.092-0.059-0.127-0.07c-0.005-0.002-0.013-0.009-0.018-0.01
		c0,0,0.003,0.007,0.003,0.008c-0.037-0.011-0.076-0.023-0.101-0.012c-0.198,0.091-0.272,0.56-0.241,1.332
		c0.015,0.386,0.057,0.848,0.122,1.376c0.052,0.534,0.111,1.142,0.197,1.804c0.323,2.662,0.749,6.331,0.886,10.551
		c0.088,3.241,0.01,6.802-0.272,10.48c-0.017,0.014-0.034,0.028-0.047,0.053l0.002,0.004c-0.003,0.005-0.008,0.006-0.011,0.012
		c-0.055-0.425-0.09-0.854-0.151-1.278c-0.378-2.74-0.952-5.427-1.608-7.975c-0.647-2.552-1.5-4.95-2.353-7.144
		c-1.779-4.38-3.87-7.849-5.544-10.128c-0.426-0.567-0.799-1.078-1.151-1.504c-0.363-0.421-0.679-0.774-0.944-1.055
		c-0.529-0.562-0.853-0.834-0.937-0.781c-0.058,0.037-0.068,0.16-0.043,0.348c-2.68-3.312-5.395-5.777-7.527-7.427
		c-1.293-1.057-2.426-1.757-3.197-2.235c-0.775-0.473-1.222-0.688-1.285-0.611c-0.019,0.021-0.02,0.061-0.012,0.107
		c0,0,0.007,0.006,0.008,0.007c0.033,0.194,0.271,0.585,0.706,1.165c0.536,0.727,1.395,1.694,2.364,2.998
		c1.996,2.536,4.658,6.202,6.943,10.822c0.607,1.134,1.102,2.375,1.653,3.618c0.268,0.625,0.483,1.285,0.735,1.934
		c0.122,0.326,0.247,0.654,0.369,0.982c0.112,0.334,0.214,0.675,0.321,1.014c0.908,2.695,1.576,5.585,2.099,8.542
		c0.227,1.181,0.382,2.386,0.539,3.592c-0.15-0.299-0.298-0.6-0.461-0.885c-1.876-3.455-3.873-6.149-5.414-7.927
		c-0.39-0.443-0.73-0.842-1.057-1.171s-0.61-0.604-0.85-0.821c-0.478-0.435-0.774-0.639-0.855-0.582
		c-0.023,0.016-0.038,0.048-0.049,0.087l0.001,0.002c-0.246,0.729,2.12,5.448,4.021,12.131c0.134,0.434,0.246,0.884,0.363,1.338
		c0.116,0.454,0.247,0.91,0.358,1.379c0.213,0.941,0.452,1.896,0.64,2.884c0.217,0.979,0.373,1.994,0.559,3.01
		c0.152,1.025,0.322,2.057,0.441,3.106c0.452,3.507,0.661,7.117,0.764,10.616h-2.176c-0.509-3.919-1.312-7.935-2.405-11.786
		c-1.385-4.96-3.266-9.622-5.243-13.508c-1.995-3.886-4.082-6.986-5.705-9.056c-0.411-0.516-0.779-0.976-1.113-1.367
		c-0.345-0.384-0.646-0.708-0.898-0.965c-0.505-0.512-0.816-0.761-0.9-0.707c-0.487,0.314,1.779,5.06,3.899,12.084
		c-1.775-2.561-3.537-4.586-4.961-5.997c-0.459-0.445-0.863-0.847-1.24-1.178c-0.382-0.324-0.714-0.596-0.99-0.808
		c-0.554-0.427-0.887-0.622-0.962-0.558c-0.021,0.02-0.032,0.053-0.038,0.094l0.002,0.002c-0.139,0.787,2.998,5.559,5.557,12.637
		c0.783,2.164,1.508,4.549,2.157,7.048c-0.12-0.198-0.238-0.402-0.359-0.595c-2.067-3.33-4.219-5.881-5.852-7.559
		c-0.803-0.853-1.507-1.468-2.002-1.876c-0.499-0.407-0.805-0.595-0.884-0.534c-0.022,0.018-0.036,0.049-0.044,0.088l0.003,0.004
		c-0.036,0.159,0.036,0.485,0.213,0.973c0.217,0.604,0.603,1.434,1.053,2.483c0.931,2.075,2.231,4.966,3.418,8.386
		c1.206,3.414,2.256,7.36,2.947,11.484c0.092,0.512,0.172,1.028,0.248,1.547l-0.541,0.532c-0.694-2.923-1.582-5.842-2.631-8.639
		c-1.729-4.747-4.068-9.06-6.265-12.673c-2.862-4.562-5.616-7.943-7.319-9.762c0.577-1.312,0.852-2.126,0.722-2.223
		c-0.022-0.017-0.055-0.021-0.094-0.021c0,0-0.003,0.004-0.003,0.005c-0.257,0.007-0.849,0.413-1.71,1.158
		c-0.351-0.315-0.577-0.47-0.632-0.432c-0.017,0.011-0.024,0.037-0.033,0.062c-2.059-2.524-4.09-4.518-5.742-5.933
		c-0.403-0.339-0.775-0.636-1.132-0.91c-0.065-0.051-0.126-0.097-0.188-0.146c-0.066-0.05-0.135-0.103-0.198-0.149
		c-0.116-0.088-0.238-0.184-0.348-0.264c-0.259-0.179-0.49-0.332-0.709-0.472c-0.097-0.062-0.186-0.117-0.274-0.171
		c-0.049-0.031-0.105-0.068-0.151-0.095c-0.027-0.017-0.048-0.025-0.074-0.041c-0.063-0.036-0.121-0.068-0.179-0.1
		c-0.099-0.054-0.19-0.103-0.273-0.143c-0.018-0.009-0.033-0.015-0.051-0.022c-0.099-0.046-0.188-0.083-0.263-0.106
		c-0.012-0.004-0.021-0.005-0.032-0.009c-0.063-0.019-0.122-0.031-0.165-0.032c-0.005,0-0.014-0.003-0.018-0.003l0.005,0.006
		c-0.038,0.002-0.078,0.003-0.099,0.021c-0.163,0.145-0.108,0.6,0.129,1.303c0.119,0.353,0.282,0.766,0.487,1.235
		c0.192,0.478,0.419,1.016,0.682,1.601c1.038,2.352,2.482,5.583,3.875,9.383c0.09,0.256,0.182,0.529,0.272,0.789
		c-0.016,0.02-0.031,0.035-0.046,0.055c-0.501,0.64-1.021,1.314-1.558,2.021c-0.266,0.354-0.543,0.711-0.812,1.085
		c-0.214,0.323-0.434,0.652-0.653,0.983c-0.112-0.2-0.225-0.404-0.337-0.6c-0.954-1.59-1.912-2.999-2.815-4.214
		c0.119-0.463,0.218-0.863,0.288-1.193c0.144-0.674,0.179-1.061,0.089-1.104c-0.025-0.012-0.06-0.009-0.099,0.003l-0.003,0.006
		c-0.16,0.049-0.423,0.286-0.788,0.713c-0.111,0.13-0.232,0.276-0.361,0.44c-0.512-0.643-1-1.22-1.445-1.71
		c-1.476-1.567-2.413-2.401-2.577-2.288c-0.023,0.017-0.039,0.046-0.052,0.083c0,0,0.003,0.004,0.003,0.005
		c-0.111,0.336,0.233,1.514,0.912,3.255c0.356,0.964,0.781,2.117,1.236,3.419c-1.303,2.048-2.873,4.822-4.401,8.153
		c-0.449,0.943-0.856,1.947-1.291,2.977c-0.211,0.516-0.407,1.046-0.614,1.582c-0.208,0.534-0.409,1.08-0.596,1.637
		c-0.788,2.214-1.465,4.579-2.024,7.021c-0.29,1.219-0.511,2.466-0.732,3.716c-0.091,0.624-0.183,1.25-0.264,1.877l-2.067,1.186
		c0.048-0.454,0.091-0.91,0.143-1.361c0.136-0.956,0.264-1.911,0.384-2.86c0.143-0.94,0.331-1.859,0.48-2.774
		c0.082-0.455,0.149-0.911,0.235-1.357c0.1-0.442,0.197-0.879,0.293-1.311c0.196-0.863,0.36-1.718,0.554-2.534
		c0.216-0.812,0.424-1.595,0.622-2.343c0.097-0.379,0.191-0.748,0.283-1.109c0.099-0.359,0.217-0.698,0.319-1.036
		c0.205-0.677,0.399-1.314,0.579-1.907c0.086-0.3,0.17-0.589,0.25-0.865c0.083-0.275,0.182-0.529,0.263-0.777
		c0.677-1.979,1.001-3.227,0.831-3.33c-0.025-0.015-0.058-0.017-0.095-0.013l-0.003,0.005c-0.342,0.043-1.224,0.887-2.501,2.374
		c-0.174,0.208-0.368,0.423-0.547,0.659c-0.174,0.241-0.355,0.491-0.544,0.754c-0.375,0.524-0.773,1.097-1.191,1.711
		c-0.086,0.129-0.176,0.267-0.266,0.398c0.199-1.013,0.363-2.027,0.603-3.002c0.43-2.012,0.986-3.913,1.557-5.688
		c2.323-7.095,5.483-11.798,5.114-12.088c-0.021-0.02-0.055-0.025-0.095-0.023c0,0-0.004,0.005-0.004,0.005
		c-0.162,0.004-0.464,0.162-0.904,0.471c-0.275,0.193-0.601,0.444-0.973,0.747c-0.368,0.307-0.757,0.688-1.199,1.108
		c-1.747,1.697-3.993,4.364-6.064,7.878c-1.021,1.76-2.03,3.712-2.879,5.831c-0.455,1.051-0.822,2.154-1.218,3.27
		c-0.349,1.127-0.712,2.272-0.993,3.445c-0.593,2.338-1.045,4.751-1.305,7.161c-0.268,2.408-0.399,4.811-0.349,7.129
		c0,0.039,0.004,0.076,0.005,0.116l-2.277-0.639c-0.323-3.497-0.58-7.207-0.731-10.854c-0.143-3.901-0.178-7.722-0.065-11.078
		c0.099-3.359,0.311-6.259,0.5-8.331c0.193-2.069,0.316-3.328,0.117-3.4c-0.026-0.01-0.06-0.005-0.096,0.007
		c0,0-0.002,0.005-0.002,0.006c-0.328,0.112-1.064,1.102-1.955,2.834c-0.986,1.924-2.103,4.761-3.051,8.173
		c-0.44,1.559-0.831,3.248-1.173,5.007c-0.377,0.802-0.748,1.658-1.098,2.577c-0.575,1.526-1.112,3.196-1.56,4.963
		c-0.435,1.768-0.812,3.63-1.065,5.531c-0.107,0.781-0.185,1.571-0.257,2.361c-0.074-2.582-0.061-5.19,0.073-7.765
		c0.232-5.007,0.925-9.864,1.828-14.096c1.822-8.466,4.51-14.337,4.102-14.561c-0.024-0.015-0.06-0.012-0.101-0.001
		c0,0-0.003,0.006-0.004,0.007c-0.167,0.046-0.461,0.292-0.88,0.737c-0.261,0.277-0.568,0.628-0.917,1.048
		c-0.339,0.424-0.703,0.925-1.109,1.488c-1.091,1.534-2.371,3.603-3.643,6.096c0.812-2.876,1.679-5.344,2.392-7.237
		c0.25-0.646,0.451-1.242,0.653-1.75c0.203-0.508,0.372-0.947,0.5-1.31c0.257-0.728,0.357-1.15,0.273-1.205
		c-0.121-0.077-0.476,0.182-1.03,0.74c-0.276,0.279-0.603,0.631-0.975,1.054c-0.371,0.422-0.751,0.936-1.188,1.504
		c-1.237,1.638-2.704,3.891-4.138,6.646c-0.736-3.175-1.675-6.175-2.785-8.86c-0.552-1.262-1.051-2.483-1.655-3.597
		c-0.289-0.56-0.571-1.107-0.846-1.641c-0.307-0.515-0.605-1.018-0.896-1.505c-0.297-0.483-0.561-0.961-0.863-1.399
		c-0.302-0.437-0.595-0.857-0.877-1.263c-0.283-0.4-0.556-0.787-0.817-1.155c-0.285-0.353-0.557-0.689-0.816-1.01
		c-0.526-0.632-0.975-1.209-1.418-1.675c-0.446-0.464-0.833-0.853-1.153-1.162c-0.643-0.618-1.025-0.918-1.104-0.857
		c-0.023,0.018-0.032,0.055-0.035,0.103l0.005,0.007c-0.012,0.194,0.129,0.622,0.417,1.271c0.116,0.262,0.263,0.569,0.422,0.897
		c-0.093,0.013-0.187,0.038-0.279,0.094c-2.571,1.55-4.14,4.062-6.353,5.983c-0.533,0.38-1.052,0.775-1.557,1.186
		c-1.951,1.324-4.097,2.324-6.046,3.645c0.068-0.701,0.063-1.098-0.044-1.132c-0.027-0.009-0.061-0.001-0.099,0.017
		c0,0-0.002,0.007-0.002,0.008c-0.279,0.134-0.847,1.009-1.627,2.471c0,0.001-0.001,0.001-0.002,0.002
		c-2.784,2.479-4.611,6.285-5.43,10.205c-0.332-2.254-0.768-4.488-1.279-6.705c0.502-2.78,0.872-4.488,0.642-4.58
		c-0.026-0.011-0.061-0.006-0.099,0.008c0,0-0.002,0.005-0.002,0.006c-0.154,0.055-0.401,0.301-0.736,0.74
		c-0.166,0.215-0.356,0.487-0.561,0.787c-0.078-0.291-0.148-0.582-0.229-0.872c0.03-0.546,0.058-1.096,0.087-1.646
		c0.276-0.974,0.667-1.893,1.139-2.772c0.409-0.064,0.784-0.384,0.768-0.859c-0.005-0.143-0.003-0.285-0.005-0.426
		c2.067-3.189,5.082-5.911,7.312-8.957c3.935-5.376,3.913-12.279,1.666-18.313c-0.25-0.671-1.136-0.859-1.541-0.202
		c-1.503,2.444-2.492,5.187-3.776,7.75c-1.403,2.799-3.36,5.277-4.741,8.094c-2.035,4.154-2.273,8.511-2.253,12.941
		c-1.616-4.837-3.631-9.545-5.979-14.078c-0.43-2.008-1.043-4.021-1.439-5.983c-0.58-2.868-1.186-5.628-2.496-8.264
		c-2.349-4.722-6.593-8.162-10.859-11.075c-0.505-0.344-1.138,0.221-0.991,0.761c1.542,5.67,3.096,11.412,6.041,16.543
		c2.565,4.472,6.469,7.968,9.825,11.857c1.128,2.518,2.183,5.063,3.144,7.646c-2.073-2.863-4.654-5.279-7.748-7.339
		c-4.947-3.293-10.732-5.545-16.38-7.31c-0.776-0.243-1.291,0.509-1.19,1.19c0.925,6.25,4.962,10.226,10.417,13.024
		c3.071,1.575,6.501,2.167,9.789,3.117c1.639,0.474,3.198,1.105,4.635,2.03c1.099,1.017,2.112,2.142,3.005,3.42
		c0.05,0.072,0.109,0.121,0.17,0.156c0.146,0.529,0.285,1.062,0.422,1.596c-0.719,1.314-1.514,2.96-2.292,4.9
		c-1.103-0.792-2.287-1.484-3.515-2.078c0.093-1.172,0.139-2.134,0.135-2.848c0-0.125-0.001-0.241-0.004-0.35
		c0-0.007,0-0.013,0-0.019c-0.013-0.503-0.06-0.834-0.15-0.971c-0.001-0.002-0.002-0.008-0.004-0.01l-0.001,0.005
		c-0.022-0.032-0.043-0.066-0.07-0.075c-0.364-0.122-1.347,1.031-2.616,3.161c-3.752-1.244-7.691-1.416-11.595-1.823
		c-0.056-0.111-0.112-0.217-0.167-0.327c-0.025-0.049-0.05-0.098-0.075-0.146c-0.178-0.346-0.354-0.678-0.529-0.999
		c-0.029-0.053-0.058-0.104-0.086-0.158c-0.277-0.501-0.552-0.982-0.815-1.416c-0.099-0.155-0.19-0.294-0.285-0.442
		c-0.013-0.021-0.027-0.044-0.04-0.065c-0.029-0.044-0.054-0.081-0.083-0.125c-0.106-0.164-0.21-0.321-0.312-0.473
		c-0.097-0.147-0.194-0.289-0.286-0.425c-0.044-0.063-0.087-0.127-0.13-0.188c-0.081-0.116-0.165-0.243-0.243-0.35
		c-0.047-0.062-0.089-0.112-0.135-0.171c-0.077-0.103-0.15-0.191-0.225-0.286c-0.066-0.082-0.131-0.163-0.193-0.24
		c-0.025-0.029-0.053-0.067-0.078-0.096c-0.04-0.048-0.072-0.083-0.11-0.127c-0.049-0.059-0.104-0.127-0.151-0.18
		c-0.027-0.03-0.047-0.05-0.073-0.078c-0.045-0.051-0.086-0.094-0.129-0.139c-0.074-0.08-0.146-0.155-0.211-0.219
		c-0.031-0.03-0.058-0.054-0.087-0.08c-0.064-0.06-0.126-0.113-0.18-0.154c-0.023-0.019-0.043-0.028-0.064-0.043
		c-0.048-0.031-0.093-0.06-0.13-0.071c-0.005-0.002-0.013-0.009-0.017-0.01c0,0,0.003,0.007,0.003,0.008
		c-0.038-0.011-0.076-0.023-0.101-0.012c-0.198,0.091-0.272,0.56-0.242,1.332c0.016,0.386,0.057,0.848,0.123,1.376
		c0.052,0.534,0.111,1.142,0.197,1.804c0.068,0.559,0.141,1.17,0.213,1.813c-0.843-0.179-1.679-0.395-2.507-0.663
		c-0.956-0.309-1.464,0.895-0.906,1.556c1.263,1.496,2.536,2.926,3.892,4.217c0.083,1.155,0.151,2.363,0.193,3.628
		c0.077,2.836,0.017,5.926-0.185,9.114c-0.108-0.007-0.215-0.014-0.322-0.02c-0.377-2.681-0.939-5.306-1.582-7.799
		c-0.647-2.552-1.499-4.95-2.352-7.144c-1.78-4.38-3.87-7.849-5.544-10.128c-0.425-0.567-0.799-1.078-1.151-1.504
		c-0.363-0.421-0.679-0.774-0.944-1.055c-0.529-0.562-0.853-0.834-0.937-0.781c-0.057,0.037-0.067,0.16-0.043,0.348
		c-2.68-3.312-5.394-5.777-7.527-7.427c-1.293-1.057-2.426-1.757-3.197-2.235c-0.776-0.473-1.223-0.688-1.286-0.611
		c-0.019,0.021-0.019,0.061-0.011,0.107c0,0,0.006,0.006,0.006,0.006c0.033,0.193,0.271,0.585,0.707,1.166
		c0.536,0.727,1.395,1.694,2.362,2.998c1.998,2.536,4.659,6.202,6.945,10.822c0.608,1.134,1.102,2.375,1.653,3.618
		c0.27,0.625,0.484,1.285,0.736,1.934c0.123,0.326,0.246,0.654,0.37,0.982c0.113,0.334,0.213,0.675,0.322,1.014
		c0.907,2.695,1.575,5.585,2.098,8.542c0.226,1.181,0.382,2.386,0.539,3.591c-0.15-0.298-0.298-0.599-0.46-0.884
		c-1.876-3.455-3.874-6.149-5.415-7.927c-0.39-0.443-0.73-0.842-1.057-1.171c-0.325-0.329-0.61-0.604-0.849-0.821
		c-0.478-0.435-0.774-0.639-0.856-0.582c-0.023,0.016-0.039,0.048-0.049,0.087l0.001,0.002c-0.245,0.732,2.122,5.45,4.02,12.131
		c0.134,0.434,0.247,0.884,0.365,1.338c0.115,0.454,0.246,0.91,0.357,1.379c0.214,0.941,0.453,1.896,0.64,2.884
		c0.216,0.979,0.374,1.994,0.56,3.01c0.151,1.025,0.321,2.057,0.44,3.106c0.539,4.186,0.742,8.528,0.82,12.64
		c0.019,1.133,0.021,2.248,0.018,3.354l-0.04,0.027c-0.027,0.383-0.065,0.754-0.095,1.135l-1.529-0.136
		c-0.057-1.013-0.124-2.033-0.215-3.069c-0.43-4.937-1.368-10.167-2.775-15.12c-1.385-4.96-3.265-9.622-5.243-13.508
		c-0.864-1.684-1.745-3.21-2.599-4.578c1.076-4.258,0.863-8.749,1.837-13.008c0.464-1.226,0.888-2.468,1.251-3.735
		c0.247-0.864-0.977-1.13-1.305-0.355c-0.34,0.802-0.611,1.616-0.841,2.436c-1.242,3.315-2.826,6.537-4.391,9.759
		c-0.274-0.341-0.535-0.664-0.772-0.941c-0.345-0.384-0.646-0.708-0.898-0.965c-0.505-0.512-0.817-0.761-0.901-0.707
		c-0.293,0.189,0.408,1.977,1.474,4.893c-0.41,0.863-0.813,1.728-1.202,2.596c-0.467-0.517-0.916-0.988-1.333-1.401
		c-0.459-0.445-0.863-0.847-1.239-1.178c-0.383-0.324-0.714-0.596-0.991-0.808c-0.554-0.427-0.887-0.622-0.962-0.558
		c-0.021,0.02-0.032,0.053-0.038,0.094l0.001,0.002c-0.1,0.553,1.425,3.085,3.232,7.007c-0.604,1.545-1.137,3.108-1.562,4.699
		c-0.055-0.057-0.113-0.12-0.166-0.175c-0.715-0.759-1.342-1.32-1.823-1.725c-0.19-0.758-0.375-1.52-0.578-2.273
		c-2.468-9.163-6.051-17.883-9.129-26.836c-0.926-2.69-1.752-5.575-2.01-8.419c-0.052-0.562-0.844-0.916-1.152-0.319
		c-3.908,7.564-2.792,15.33,0.966,22.694c3.272,6.408,7.614,12.159,10.886,18.546c0.341,1.515,0.636,3.039,0.906,4.568
		c-0.843-1.58-1.707-3.073-2.55-4.461c-2.915-4.646-5.713-8.061-7.408-9.854c0.549-1.259,0.807-2.036,0.681-2.131
		c-0.023-0.017-0.056-0.021-0.094-0.021c0,0-0.003,0.004-0.003,0.005c-0.25,0.007-0.816,0.391-1.643,1.101
		c-0.318-0.279-0.518-0.41-0.569-0.374c-0.016,0.011-0.024,0.037-0.034,0.062c-1.24-1.519-2.464-2.841-3.607-3.963
		c-0.007-0.007-0.014-0.014-0.021-0.021c-0.296-0.291-0.584-0.566-0.868-0.83c-0.017-0.016-0.033-0.03-0.049-0.046
		c-0.415-0.383-0.819-0.749-1.198-1.073c-0.395-0.333-0.762-0.624-1.113-0.895c-0.086-0.067-0.167-0.129-0.251-0.194
		c-0.046-0.034-0.094-0.071-0.139-0.105c-0.122-0.092-0.249-0.191-0.363-0.275c-0.261-0.18-0.494-0.333-0.714-0.475
		c-0.096-0.062-0.183-0.114-0.27-0.168c-0.048-0.031-0.105-0.068-0.152-0.095c-0.027-0.016-0.046-0.025-0.072-0.04
		c-0.063-0.037-0.122-0.068-0.18-0.101c-0.099-0.054-0.191-0.103-0.275-0.143c-0.017-0.009-0.032-0.015-0.048-0.022
		c-0.099-0.046-0.188-0.083-0.264-0.106c-0.012-0.004-0.02-0.005-0.031-0.009c-0.063-0.019-0.122-0.031-0.166-0.032
		c-0.004,0-0.013-0.003-0.018-0.003c0,0,0.004,0.006,0.005,0.006c-0.04,0.002-0.079,0.003-0.1,0.021
		c-0.162,0.145-0.107,0.6,0.13,1.303c0.118,0.353,0.282,0.766,0.487,1.235c0.192,0.478,0.418,1.016,0.682,1.601
		c1.038,2.352,2.483,5.583,3.875,9.383c0.077,0.221,0.156,0.457,0.235,0.681c-0.046,0.056-0.093,0.105-0.137,0.163
		c-0.501,0.64-1.022,1.314-1.558,2.021c-0.266,0.354-0.544,0.711-0.811,1.085c-0.192,0.288-0.388,0.584-0.584,0.879
		c-0.093-0.164-0.186-0.333-0.278-0.495c-0.988-1.647-1.98-3.099-2.912-4.342c0.104-0.406,0.192-0.769,0.256-1.065
		c0.144-0.674,0.179-1.061,0.088-1.104c-0.025-0.012-0.06-0.009-0.099,0.003c0,0-0.003,0.006-0.003,0.007
		c-0.159,0.048-0.423,0.286-0.787,0.712c-0.091,0.106-0.193,0.231-0.296,0.36c-0.488-0.61-0.954-1.161-1.381-1.63
		c-1.476-1.567-2.413-2.401-2.578-2.288c-0.023,0.017-0.04,0.046-0.052,0.083c0,0,0.003,0.004,0.003,0.005
		c-0.111,0.336,0.233,1.514,0.911,3.255c0.345,0.932,0.753,2.043,1.191,3.29c-1.32,2.061-2.923,4.878-4.485,8.282
		c-0.449,0.943-0.856,1.947-1.291,2.977c-0.211,0.516-0.408,1.046-0.614,1.582c-0.208,0.534-0.41,1.08-0.596,1.637
		c-0.788,2.214-1.465,4.579-2.024,7.021c-0.29,1.219-0.511,2.466-0.732,3.716c-0.184,1.258-0.368,2.52-0.474,3.789
		c-0.028,0.311-0.046,0.62-0.069,0.931l-2.088,1.508c0.127-1.512,0.27-3.026,0.444-4.526c0.136-0.956,0.264-1.911,0.384-2.86
		c0.143-0.94,0.331-1.859,0.48-2.774c0.081-0.455,0.148-0.911,0.235-1.357c0.099-0.442,0.197-0.879,0.293-1.311
		c0.195-0.863,0.359-1.718,0.554-2.534c0.215-0.812,0.423-1.595,0.622-2.343c0.096-0.379,0.191-0.748,0.283-1.109
		c0.098-0.359,0.217-0.698,0.319-1.036c0.205-0.677,0.399-1.314,0.579-1.907c0.086-0.3,0.17-0.589,0.25-0.865
		c0.083-0.275,0.182-0.529,0.264-0.777c0.676-1.979,1.001-3.227,0.831-3.33c-0.024-0.015-0.058-0.017-0.095-0.013l-0.003,0.005
		c-0.343,0.043-1.224,0.887-2.501,2.374c-0.175,0.208-0.368,0.423-0.547,0.659c-0.174,0.241-0.356,0.491-0.544,0.754
		c-0.375,0.524-0.773,1.097-1.192,1.711c-0.086,0.128-0.175,0.267-0.265,0.397c0.198-1.012,0.363-2.026,0.603-3.001
		c0.43-2.012,0.986-3.913,1.557-5.688c2.323-7.095,5.484-11.798,5.114-12.088c-0.022-0.02-0.056-0.025-0.095-0.023l-0.004,0.005
		c-0.161,0.004-0.463,0.162-0.904,0.471c-0.275,0.193-0.6,0.444-0.973,0.747c-0.368,0.307-0.757,0.688-1.199,1.108
		c-1.746,1.697-3.992,4.364-6.063,7.878c-1.021,1.76-2.03,3.712-2.879,5.831c-0.455,1.051-0.822,2.154-1.217,3.27
		c-0.349,1.127-0.712,2.272-0.993,3.445c-0.594,2.338-1.045,4.751-1.305,7.161c-0.268,2.408-0.4,4.811-0.35,7.129
		c0.029,1.779,0.148,3.506,0.316,5.195l-0.575-0.081c-0.165,1.212-0.271,2.413-0.396,3.595c-0.023,0.264-0.052,0.527-0.079,0.789
		l-0.354-0.669c-0.454-2.676-0.847-5.563-1.119-8.617c-0.356-3.706-0.635-7.688-0.797-11.589c-0.143-3.901-0.178-7.722-0.064-11.078
		c0.099-3.359,0.311-6.259,0.5-8.331c0.193-2.069,0.316-3.328,0.118-3.4c-0.026-0.01-0.06-0.005-0.097,0.007
		c0,0-0.002,0.005-0.002,0.006c-0.328,0.114-1.064,1.103-1.955,2.834c-0.985,1.924-2.102,4.761-3.05,8.173
		c-0.44,1.559-0.831,3.248-1.174,5.007c-0.377,0.802-0.748,1.658-1.098,2.577c-0.575,1.526-1.112,3.196-1.559,4.963
		c-0.436,1.768-0.812,3.63-1.066,5.531c-0.106,0.781-0.185,1.571-0.257,2.361c-0.074-2.582-0.061-5.19,0.073-7.765
		c0.232-5.007,0.926-9.864,1.828-14.096c1.822-8.466,4.51-14.337,4.103-14.561c-0.024-0.015-0.06-0.012-0.102-0.001
		c0,0-0.003,0.006-0.004,0.007c-0.166,0.046-0.461,0.292-0.88,0.737c-0.261,0.277-0.568,0.628-0.916,1.048
		c-0.339,0.424-0.703,0.925-1.11,1.488c-1.091,1.534-2.371,3.603-3.643,6.096c0.812-2.876,1.679-5.344,2.391-7.237
		c0.25-0.646,0.452-1.242,0.654-1.75c0.203-0.508,0.371-0.947,0.5-1.31c0.257-0.728,0.357-1.15,0.273-1.205
		c-0.121-0.077-0.476,0.182-1.029,0.74c-0.276,0.279-0.603,0.631-0.975,1.054c-0.371,0.422-0.751,0.936-1.188,1.504
		c-1.236,1.638-2.704,3.891-4.138,6.646c-0.736-3.175-1.675-6.175-2.785-8.86c-0.552-1.262-1.05-2.483-1.655-3.597
		c-0.289-0.56-0.571-1.107-0.846-1.641c-0.307-0.515-0.605-1.018-0.896-1.505c-0.297-0.483-0.561-0.961-0.863-1.399
		c-0.303-0.437-0.595-0.857-0.877-1.263c-0.283-0.4-0.556-0.787-0.817-1.155c-0.285-0.353-0.557-0.689-0.816-1.01
		c-0.283-0.339-0.542-0.658-0.791-0.958c1.673-2.604,3.364-5.01,4.314-8.001c1.458-4.596,1.087-9.524,2.15-14.174
		c0.464-1.226,0.889-2.468,1.252-3.736c0.247-0.863-0.978-1.129-1.306-0.354c-0.339,0.802-0.611,1.616-0.841,2.435
		c-3.271,8.737-8.923,16.812-10.327,26c-0.521-2.583-1.14-5.146-1.822-7.679c-2.469-9.163-6.051-17.883-9.129-26.836
		c-0.925-2.691-1.752-5.576-2.01-8.419c-0.051-0.562-0.843-0.916-1.152-0.319c-3.908,7.564-2.792,15.33,0.966,22.694
		c3.271,6.408,7.615,12.159,10.886,18.546c0.864,3.843,1.506,7.731,1.858,11.661c-0.074,0.134-0.146,0.26-0.223,0.403
		c-1.293,2.395-2.93,5.87-4.506,10.08c-1.562,4.21-3.067,9.16-4.073,14.418c-0.501,2.552-0.879,5.177-1.121,7.802
		c-0.171,0.179-0.345,0.352-0.51,0.539c-0.352,0.369-0.687,0.763-1.019,1.164c0.434-4.58,0.904-9.072,1.25-13.04
		c0.355-4.013,0.582-7.486,0.643-9.959c0.065-2.474-0.026-3.947-0.218-3.98c-0.028-0.005-0.061,0.008-0.095,0.029
		c0,0-0.001,0.006-0.001,0.007c-0.317,0.197-0.892,1.485-1.665,3.572c-0.582,1.581-1.279,3.62-2.036,5.979
		c0.063-0.63,0.128-1.256,0.182-1.872c0.051-0.551,0.101-1.094,0.15-1.629c0.07-0.534,0.139-1.059,0.206-1.574
		c1.043-8.281,2.276-14.3,1.84-14.438c-0.027-0.009-0.061-0.001-0.099,0.017c0,0-0.002,0.007-0.002,0.008
		c-0.343,0.164-1.115,1.43-2.185,3.539c-0.615,1.163-1.23,2.614-1.916,4.271c-0.17,0.415-0.346,0.842-0.526,1.28
		c-0.177,0.44-0.367,0.89-0.524,1.363c-0.325,0.943-0.665,1.931-1.018,2.954c-0.172,0.515-0.354,1.037-0.521,1.572
		c-0.151,0.541-0.305,1.091-0.461,1.647c-0.243,0.899-0.501,1.823-0.741,2.765c0.01-0.12,0.021-0.246,0.031-0.363
		c0.041-0.589,0.079-1.135,0.136-1.626c0.195-1.971,0.215-3.186,0.026-3.248c-0.027-0.01-0.06-0.005-0.095,0.007
		c0,0-0.001,0.005-0.001,0.006c-0.322,0.106-0.978,1.059-1.862,2.672c-0.036,0.062-0.069,0.134-0.104,0.198
		c0.051-0.741,0.101-1.483,0.167-2.192c0.729-7.72,2.319-13.285,1.897-13.453c-0.026-0.011-0.061-0.006-0.099,0.008
		c0,0-0.002,0.005-0.002,0.006c-0.155,0.055-0.401,0.301-0.737,0.74c-0.209,0.271-0.45,0.616-0.721,1.023
		c-0.266,0.411-0.542,0.894-0.851,1.434c-1.22,2.168-2.7,5.377-3.935,9.323c-1.059,3.405-1.921,7.363-2.358,11.531
		c-0.307,0.253-0.628,0.491-0.96,0.718c0.004-0.131,0.008-0.266,0.012-0.395c0.005-0.163,0.007-0.326,0.01-0.489
		c0.095-2.334,0.236-4.596,0.363-6.725c0.012-0.156,0.023-0.308,0.035-0.463c0.154-1.925,0.299-3.722,0.43-5.354
		c0.158-1.887,0.299-3.554,0.397-4.937c0.012-0.146,0.023-0.295,0.034-0.435c2.504-3.651,3.495-8.141,3.165-12.684
		c-0.041-0.544-0.608-0.951-1.121-0.642c-2.571,1.547-4.14,4.06-6.353,5.983c-0.533,0.377-1.052,0.774-1.557,1.186
		c-2.564,1.737-5.467,2.917-7.814,5.004c-0.077-0.167-0.154-0.324-0.231-0.487c-0.006-0.013-0.012-0.024-0.018-0.037
		c-0.191-0.402-0.382-0.791-0.573-1.165c-0.027-0.053-0.054-0.105-0.081-0.159c-0.176-0.342-0.351-0.671-0.524-0.988
		c-0.03-0.055-0.06-0.109-0.09-0.165c-0.277-0.5-0.551-0.98-0.813-1.413c-0.099-0.155-0.19-0.294-0.285-0.442
		c-0.013-0.021-0.027-0.044-0.04-0.065c-0.029-0.044-0.054-0.081-0.082-0.125c-0.106-0.164-0.21-0.321-0.312-0.473
		c-0.098-0.147-0.194-0.289-0.286-0.425c-0.044-0.063-0.088-0.127-0.131-0.188c-0.081-0.116-0.165-0.243-0.243-0.35
		c-0.047-0.062-0.088-0.112-0.134-0.171c-0.078-0.103-0.151-0.191-0.225-0.286c-0.066-0.082-0.131-0.163-0.193-0.24
		c-0.025-0.029-0.053-0.067-0.078-0.096c-0.04-0.048-0.072-0.083-0.11-0.127c-0.05-0.059-0.105-0.127-0.151-0.18
		c-0.014-0.016-0.024-0.025-0.037-0.04c1.952-2.563,4.366-4.891,6.235-7.444c3.935-5.376,3.913-12.281,1.666-18.313
		c-0.25-0.673-1.136-0.861-1.541-0.202c-1.503,2.443-2.492,5.187-3.776,7.748c-1.403,2.8-3.361,5.277-4.741,8.094
		c-2.035,4.154-2.274,8.511-2.253,12.942c-1.616-4.838-3.632-9.546-5.98-14.079c-0.43-2.007-1.042-4.019-1.439-5.981
		c-0.581-2.869-1.186-5.629-2.496-8.264c-2.349-4.721-6.592-8.161-10.859-11.074c-0.504-0.345-1.137,0.219-0.99,0.761
		c1.541,5.669,3.095,11.413,6.04,16.542c2.565,4.472,6.469,7.969,9.825,11.857c1.128,2.519,2.183,5.064,3.144,7.647
		c-2.073-2.865-4.654-5.281-7.748-7.34c-0.194-0.129-0.397-0.247-0.594-0.373c-1.831-1.93-3.589-3.471-5.066-4.613
		c-1.293-1.057-2.426-1.757-3.197-2.235c-0.776-0.473-1.222-0.688-1.286-0.611c-0.019,0.021-0.02,0.061-0.011,0.107l0.006,0.006
		c0.034,0.193,0.271,0.585,0.707,1.166c0.473,0.64,1.2,1.481,2.025,2.558c-2.931-1.295-5.965-2.376-8.965-3.314
		c-0.776-0.242-1.291,0.509-1.19,1.191c0.926,6.25,4.962,10.226,10.417,13.023c2.547,1.306,5.342,1.939,8.097,2.658
		c0.19,0.438,0.378,0.877,0.575,1.321c0.27,0.625,0.485,1.285,0.736,1.934c0.123,0.326,0.246,0.654,0.369,0.982
		c0.113,0.334,0.213,0.675,0.322,1.014c0.527,1.566,0.967,3.204,1.351,4.877c-0.104-0.046-0.208-0.099-0.312-0.144
		c-1.367-0.588-2.766-0.994-4.182-1.3c-0.03-0.036-0.063-0.076-0.094-0.111c-0.39-0.443-0.731-0.842-1.057-1.171
		c-0.325-0.329-0.61-0.604-0.849-0.821c-0.478-0.435-0.774-0.639-0.856-0.582c-0.023,0.016-0.039,0.048-0.049,0.087l0.001,0.002
		c-0.087,0.259,0.15,1.012,0.581,2.181c-2.669-0.389-5.381-0.536-8.064-0.868c-0.312-0.427-0.616-0.835-0.901-1.198
		c-0.411-0.516-0.778-0.976-1.113-1.367c-0.345-0.384-0.646-0.708-0.898-0.965c-0.505-0.512-0.817-0.761-0.901-0.707
		c-0.255,0.164,0.244,1.542,1.077,3.811c-1.033-0.198-2.058-0.443-3.07-0.77c-0.816-0.265-1.3,0.573-1.078,1.236
		c-0.073-0.059-0.154-0.124-0.221-0.176c-0.553-0.427-0.887-0.622-0.962-0.558c-0.021,0.02-0.032,0.053-0.038,0.094l0.001,0.002
		c-0.141,0.785,2.998,5.557,5.557,12.637c0.61,1.684,1.185,3.505,1.718,5.4c-0.207-0.013-0.414-0.026-0.62-0.039
		c-1.845-2.799-3.701-4.979-5.151-6.467c-0.802-0.853-1.507-1.468-2.003-1.876c-0.021-0.018-0.036-0.028-0.057-0.044
		c-0.727-1.875-1.549-3.724-2.491-5.538c-1.615-3.108-3.508-6.05-5.596-8.855c-0.819-1.708-1.678-3.266-2.079-5.139
		c-0.373-1.742-0.298-3.564-0.237-5.333c0.109-3.186,0.372-6.192-0.354-9.333c-1.086-4.699-3.916-8.751-5.37-13.292
		c-0.225-1.292-0.493-2.577-0.826-3.853c-0.227-0.87-1.417-0.476-1.304,0.36c0.117,0.863,0.297,1.7,0.517,2.524
		c1.635,9.184,0.886,19.012,4.356,27.634c-1.765-1.958-3.602-3.849-5.479-5.681c-6.792-6.628-14.316-12.308-21.526-18.443
		c-2.167-1.845-4.348-3.905-6.019-6.222c-0.329-0.456-1.192-0.358-1.153,0.313c0.49,8.499,5.406,14.615,12.392,19.037
		c6.079,3.846,12.746,6.583,18.815,10.415c3.049,3.236,5.901,6.65,8.43,10.323c2.618,3.799,4.815,7.891,6.507,12.185
		c0.88,2.23,1.56,4.513,2.122,6.826c-0.247-0.022-0.493-0.046-0.739-0.07c-0.792-1.47-1.6-2.863-2.391-4.163
		c-4.513-7.194-8.766-11.462-9.036-11.274c-0.017,0.011-0.024,0.037-0.034,0.062c-1.239-1.519-2.464-2.841-3.607-3.963
		c-0.007-0.007-0.014-0.014-0.021-0.021c-0.296-0.291-0.584-0.566-0.867-0.83c-0.017-0.016-0.033-0.03-0.049-0.046
		c-0.415-0.383-0.819-0.749-1.198-1.073c-0.396-0.333-0.762-0.624-1.113-0.895c-0.087-0.067-0.168-0.129-0.251-0.194
		c-0.046-0.034-0.094-0.071-0.139-0.105c-0.121-0.092-0.249-0.191-0.362-0.275c-0.261-0.18-0.495-0.333-0.714-0.475
		c-0.095-0.062-0.182-0.114-0.27-0.168c-0.048-0.031-0.105-0.068-0.151-0.095c-0.027-0.016-0.046-0.025-0.072-0.04
		c-0.064-0.037-0.122-0.068-0.18-0.101c-0.099-0.054-0.191-0.103-0.275-0.143c-0.017-0.009-0.032-0.015-0.048-0.022
		c-0.1-0.046-0.189-0.083-0.264-0.106c-0.012-0.004-0.02-0.005-0.031-0.009c-0.064-0.019-0.123-0.031-0.166-0.032
		c-0.004,0-0.013-0.003-0.018-0.003c0,0,0.004,0.006,0.005,0.006c-0.039,0.002-0.079,0.003-0.099,0.021
		c-0.163,0.145-0.107,0.6,0.129,1.303c0.119,0.353,0.283,0.766,0.487,1.235c0.192,0.478,0.418,1.016,0.682,1.601
		c1.038,2.352,2.483,5.583,3.875,9.383c0.673,1.914,1.381,3.943,2.007,6.089c0.625,2.146,1.248,4.366,1.771,6.65
		c0.094,0.397,0.177,0.802,0.268,1.201c-0.113,0.34-0.23,0.737-0.349,1.2c-0.265,1.036-0.55,2.368-0.796,3.904
		c-0.352-1.325-0.729-2.644-1.155-3.935c-1.278-4.003-3.114-7.7-4.88-10.776c-1.836-3.06-3.691-5.473-5.134-7.059
		c-1.477-1.567-2.414-2.401-2.578-2.288c-0.023,0.017-0.04,0.046-0.052,0.083c0,0,0.003,0.004,0.003,0.005
		c-0.111,0.336,0.233,1.514,0.912,3.255c0.721,1.95,1.717,4.664,2.692,7.832c0.851,2.991,1.757,6.351,2.405,9.893
		c-2.026-2.037-4.006-3.466-5.479-4.347c-0.743-0.461-1.377-0.763-1.823-0.95c-0.448-0.188-0.719-0.249-0.784-0.173
		c-0.018,0.021-0.028,0.052-0.034,0.089l0.003,0.003c-0.022,0.144,0.054,0.394,0.227,0.745c0.213,0.438,0.578,1.011,1.012,1.734
		c0.89,1.424,2.137,3.377,3.334,5.7c1.213,2.316,2.346,5.012,3.223,7.854c0.449,1.419,0.832,2.878,1.165,4.344
		c0.333,1.465,0.637,2.929,0.894,4.373c0.229,1.247,0.428,2.479,0.613,3.69c-0.039,0.718-0.039,1.42-0.116,2.1
		c-0.062,0.721-0.113,1.42-0.157,2.096c-0.045,0.676-0.064,1.328-0.133,1.949c-0.067,0.744-0.117,1.444-0.151,2.108h1.73h0.5h0.291
		h2.292h0.071h0.163H38.5h0.499h0.123h0.348h2.47h0.864h0.489h2.155h1.024h1.365h0.78h1.651h1.511h0.204h0.276h0h1.786h0.846h0.033
		h0.478h1.013h0.395h0.823h1.368h0.115h0.717h2.1h0.716h0.306h0.563h1.795h0.258h0.793h0.427h1.295h0.548h1.604h1.528h0.459h0.11
		h1.29h1.532h0.188h1.218h0.045h0.217h0.237h0.853h1.524h0.311h0.231h0.915h1.113h0.705h0.422h3.581h0.455h0.001h2.453h0.254h0.132
		h0.372h0.363h2.346h0.148h0.135h0.763h0.004h0.417h0.015h1.851h0.602h0.424h0.392h0.005h2.38h0.597h0.567h1.433h0.375h0.899h0.821
		h0.548h0.028h0.915h0.024h0.056h0.325h0.029h0.467h0.671h0.245h1.354h0.305h0.022h0.421h0.014h0.027h0.27h0.027h0.436h0.022h0.306
		h0.475h0.88h0.243h0.671h0.467h0.029h0.326h0.056h0.024h0.915h0.027h0.549h0.821h0.899h0.375h1.433h0.567h0.598h2.379h0.005h0.392
		h0.424h0.602h1.852h0.015h0.418h0.004h0.763h0.134h0.148h2.346h0.363h0.373h0.132h0.254h2.453h0.002h0.454h3.583h0.422h0.705h2.027
		h0.232h0.31h2.377h0.237h0.217h0.046h1.219h1.719h1.291h0.11h0.458h1.527h1.605h0.547h1.294h0.429h0.792h0.257h1.796h0.563h0.305
		h0.717h2.1h0.717h0.115h1.367h0.824h1.408h0.511h0.846h1.787h0.276h0.204h1.51h1.651h0.78h1.365h1.024h2.156h0.489h0.864h2.47
		h0.348h0.123h0.498h2.037h0.164h0.07h2.292h0.29h0.5h1.464h0.268h1.462h0.5h0.291h2.292h0.071h0.165h2.035h0.499h0.123h0.348h2.471
		h0.865h0.488h2.155h1.024h0.62h0.746h0.78h0.374h1.277h1.51h0.204h0.276h1.786h0.845h0.512h1.408h0.823h1.368h0.115h0.717h2.101
		h0.716h0.306h0.563h1.796h0.257h0.793h0.427h1.295h0.548h1.604h1.528h0.458h0.111h1.29h1.532h0.186h1.22h0.045h0.217h0.238h0.853
		h1.523h0.311h0.232h0.915h1.114h0.705h0.42h3.583h0.454h0.001h2.453h0.255h0.132h0.372h0.363h2.346h0.147h0.135h0.763h0.004h0.417
		h0.015h1.853h0.601h0.424h0.392h0.005h2.379h0.597h0.567h1.433h0.375h0.899h0.822h0.548h0.028h0.915h0.024h0.056h0.325h0.029h0.467
		h0.672h0.244h1.354h0.305h0.022h0.435h0.027h0.27h0.027h0.435h0.023h0.306h1.354h0.243h0.671h0.468h0.028h0.326h0.056h0.025h0.915
		h0.027h0.549h0.821h0.899h0.375h1.433h0.568h0.597h2.379h0.005h0.392h0.424h0.602h1.852h0.015h0.417h0.004h0.763h0.135h0.148h2.345
		h0.363h0.373h0.132h0.253h2.452h0.003h0.454h3.583h0.421h0.705h2.028h0.233h0.309h2.377h0.238h0.217h0.045h1.219h1.719h1.291h0.11
		h0.458h1.529h1.604h0.547h1.295h0.427h0.793h0.257h1.796h0.563h0.305h0.716h2.101h0.716h0.116h1.367h0.824h1.408h0.51h0.846h1.786
		h0.001h0.277h0.203h1.51h1.651h0.78h1.365h1.025h2.155h0.489h0.864h2.471h0.348h0.122h0.499h2.037h0.163h0.072h2.291h0.289h0.501
		h1.333h0.397h1.333h0.501h0.29h2.291h0.071h0.163h2.037h0.499h0.122h0.348h2.471h0.865h0.488h2.154h1.025h1.365h0.779h1.651h1.511
		h0.203h0.277h0.001h1.786h0.845h0.511h1.408h0.823h1.367h0.115h0.716h2.102h0.716h0.306h0.563h1.796h0.257h0.794h0.428h1.294h0.548
		h1.604h1.527h0.459h0.11h1.291h1.531h0.188h1.219h0.045h0.217h0.238h0.853h1.524h0.31h0.233h0.914h1.114h0.704h0.422h3.582h0.454
		h0.003h2.452h0.254h0.132h0.373h0.362h1.969h0.376h0.148h0.135h0.763h0.004h0.418h0.012h0.003h1.851h0.603h0.425h0.392h0.006h2.379
		h0.597h0.567h1.433h0.375h0.898h0.822h0.548h0.028h0.914h0.024h0.056h0.326h0.028h0.468h0.671h0.242h1.355h0.306h0.022h0.436h0.027
		h0.27h0.027h0.436h0.022h0.305h1.354h0.243h0.672h0.467h0.029h0.325h0.056h0.024h0.914h0.029h0.547h0.822h0.899h0.374h1.433h0.567
		h0.597h2.38h0.005h0.393h0.424h0.602h1.852h0.016h0.417h0.004h0.763h0.135h0.148h2.346h0.362h0.372h0.131h0.256h2.452h0.002h0.454
		h3.583h0.421h0.705h2.028h0.231h0.312h2.376h0.238h0.217h0.045h1.22h1.718h1.291h0.11h0.459h1.527h1.604h0.548h1.295h0.427h0.794
		h0.257h1.796h0.563h0.307h0.716h2.101h0.716h0.115h1.368h0.822h1.408h0.512h0.845h1.786h0.277h0.203h1.511h1.651h0.78h1.365h1.024
		h2.154h0.488h0.865h2.471h0.349h0.122h0.498h2.036h0.164h0.071h2.291h0.291h0.5h1.462h0.269h1.463h0.5h0.29h2.292h0.07h0.163h2.037
		h0.499h0.122h0.348h2.471h0.864h0.488h2.156h1.024h1.364h0.78h1.651h1.511h0.204h0.275h1.788h0.845h0.511h1.407h0.824h1.366h0.116
		h0.716h2.102h0.716h0.305h0.563h1.797h0.257H540h0.429h1.295h0.548h1.604h1.527h0.459h0.11h1.29h1.532h0.188h1.219h0.045h0.218
		h0.237h0.853h1.524h0.31h0.233h0.913h1.113h0.706h0.421h3.583h0.454h0.002h2.453h0.253h0.133h0.371h0.364h2.346h0.146h0.136h0.763
		h0.004h0.418h0.015h1.852h0.602h0.425h0.392h0.006h2.378h0.598h0.567h1.433h0.375h0.898h0.821h0.549h0.027h0.915h0.024h0.056h0.326
		h0.028h0.468h0.671h0.242h1.355h0.306h0.021h0.437h0.027h0.27h0.027h0.435h0.022h0.306h1.354h0.245h0.671h0.467h0.029h0.324h0.057
		h0.024h0.914h0.028h0.548h0.822h0.898h0.375h1.433h0.567h0.597h2.38h0.005h0.393h0.423h0.603h1.141h0.711h0.016h0.417h0.004h0.631
		h0.132h0.135h0.147h2.346h0.363h0.372h0.132h0.254h2.453h0.002h0.455h3.581h0.422h0.705h2.028h0.231h0.311h2.378h0.236h0.218h0.045
		h1.219h1.72h1.289h0.111h0.458h1.528h1.604h0.548h1.295h0.427h0.793h0.259h1.795h0.563h0.307h0.716h2.101h0.716h0.115h1.368h0.822
		h1.408h0.511h0.846h1.786h0.001h0.276h0.203h1.511h1.651h0.78h1.365h1.023h2.155h0.489h0.864h2.471h0.349h0.122h0.498h2.036h0.164
		h0.071h2.291h0.29h0.5h1.729c-0.034-0.664-0.084-1.364-0.15-2.108c-0.068-0.621-0.088-1.273-0.133-1.949
		c-0.044-0.676-0.095-1.375-0.156-2.096c-0.077-0.68-0.077-1.382-0.116-2.1c0.186-1.212,0.385-2.443,0.613-3.69
		c0.256-1.444,0.561-2.908,0.894-4.373c0.334-1.466,0.716-2.925,1.165-4.344c0.001-0.002,0.002-0.005,0.003-0.008h-1.977h-0.549
		c0.009-0.1,0.013-0.197,0.022-0.297c0.11-0.995,0.247-2.007,0.401-3.025c4.886-2.049,8.458-6.008,11.815-10.242
		C675.586,84.337,675.374,82.961,674.295,83.097z M591.803,33.082c0.052,0.019,0.104,0.033,0.157,0.043
		c-0.184,0.344-0.368,0.688-0.554,1.031C591.538,33.797,591.671,33.439,591.803,33.082z M577.537,42.27
		c-0.017-0.036-0.031-0.073-0.046-0.11c-0.021-0.088-0.039-0.177-0.061-0.265c0.058,0.122,0.116,0.242,0.175,0.363
		C577.583,42.26,577.559,42.265,577.537,42.27z M580.969,50.305c0.015-0.012,0.032-0.02,0.047-0.035
		c0.042,0.121,0.086,0.243,0.127,0.364C581.085,50.524,581.026,50.414,580.969,50.305z M486.956,53.675
		c-0.01,0.022-0.02,0.048-0.03,0.071c-0.02,0.012-0.039,0.021-0.059,0.033C486.897,53.744,486.927,53.709,486.956,53.675z
		 M261.748,52.152c-0.011-0.023-0.02-0.049-0.03-0.073c0.03,0.036,0.059,0.071,0.088,0.105
		C261.788,52.173,261.768,52.162,261.748,52.152z M122.541,27.929c0.054-0.01,0.106-0.024,0.157-0.043
		c0.132,0.358,0.266,0.717,0.396,1.075C122.91,28.617,122.725,28.273,122.541,27.929z M35.969,39.644l-0.036-0.4
		c0.026,0.087,0.055,0.173,0.084,0.259c0.006,0.039,0.011,0.078,0.017,0.117C36.012,39.627,35.99,39.635,35.969,39.644z
		 M37.115,48.276c0.021,0.006,0.04,0.005,0.06,0.008c0.005,0.123,0.01,0.247,0.016,0.37C37.166,48.528,37.141,48.402,37.115,48.276z
		 M18.963,39.098c0.042-0.036,0.079-0.075,0.113-0.117c0.297,0.241,0.593,0.481,0.889,0.723
		C19.631,39.502,19.297,39.299,18.963,39.098z M38.249,52.708c0.006-0.003,0.013-0.007,0.019-0.01
		c0.073,0.255,0.15,0.51,0.229,0.765C38.411,53.212,38.329,52.96,38.249,52.708z M623.624,69.168
		c0.075,0.059,0.15,0.118,0.226,0.176c-0.207,0.385-0.415,0.779-0.622,1.188C623.358,70.065,623.49,69.611,623.624,69.168z
		 M623.963,96.793c-0.028,0.264-0.062,0.524-0.086,0.788c-0.008-0.274-0.009-0.551-0.015-0.826
		C623.896,96.769,623.93,96.78,623.963,96.793z M634.378,100.518c-0.052-0.539-0.098-1.095-0.146-1.645
		c0.216,0.05,0.436,0.085,0.646,0.149c0.425,0.129,0.795,0.286,1.132,0.461c0.196,0.192,0.383,0.396,0.574,0.596
		c0.001,0.075-0.002,0.151,0,0.227c0.026,1.608,0.13,3.171,0.269,4.707l-0.527,0.407c-0.16,1.184-0.267,2.359-0.387,3.516
		c0.104-1.758,0.237-3.539,0.408-5.331l-1.798-1.408C634.49,101.639,634.429,101.086,634.378,100.518z M651.499,84.721
		c-0.132,0.322-0.257,0.658-0.384,0.989c-0.063,0.018-0.127,0.031-0.191,0.049c-0.958,0.267-1.928,0.579-2.882,0.943
		c0.052-0.205,0.104-0.414,0.157-0.613c0.099-0.359,0.217-0.698,0.317-1.036c0.206-0.677,0.4-1.314,0.58-1.907
		c0.086-0.3,0.17-0.589,0.25-0.865c0.084-0.275,0.183-0.529,0.264-0.777c0.677-1.979,1.001-3.227,0.832-3.33
		c-0.026-0.015-0.06-0.017-0.097-0.013l-0.003,0.005c-0.343,0.044-1.225,0.888-2.501,2.374c-0.174,0.208-0.367,0.423-0.546,0.659
		c-0.174,0.241-0.356,0.491-0.545,0.754c-0.375,0.524-0.773,1.097-1.191,1.711c-0.086,0.128-0.175,0.266-0.265,0.396
		c0.198-1.011,0.363-2.025,0.602-3c0.304-1.419,0.679-2.761,1.067-4.063c0.415-0.032,0.831-0.054,1.252-0.062
		c2.396-0.046,4.799-0.009,7.173-0.316c-0.841,1.507-1.727,3.227-2.598,5.126C652.342,82.688,651.935,83.691,651.499,84.721z
		 M644.964,104.184c0.112-1.271,0.235-2.543,0.382-3.806c0.133-0.932,0.258-1.862,0.375-2.788c0.687-0.207,1.39-0.363,2.1-0.483
		c-0.098,0.522-0.193,1.045-0.287,1.57c-0.184,1.258-0.367,2.52-0.473,3.789c-0.058,0.631-0.104,1.262-0.143,1.892L644.964,104.184z
		 M654.559,99.709c0.004-0.064,0.008-0.13,0.011-0.195c0.078-0.934,0.15-1.867,0.244-2.799c0.188-0.003,0.374-0.009,0.561-0.013
		c-0.032,0.249-0.07,0.501-0.098,0.749c-0.175,1.815-0.219,3.584-0.192,5.304l-0.354,0.505c0.132-1.611,0.246-3.193,0.34-4.715
		L654.559,99.709z M640.185,79.977c-0.086,0.219-0.175,0.437-0.257,0.658c0.017-0.17,0.025-0.34,0.043-0.511
		C640.044,80.077,640.113,80.025,640.185,79.977z M637.603,81.071c0.118,0.255,0.343,0.378,0.584,0.399
		c0.017,0.026,0.034,0.053,0.052,0.08c0.009,0.1,0.034,0.186,0.07,0.26c-0.114,1.616-0.179,3.233-0.221,4.851
		c-0.517,2.136-0.917,4.326-1.154,6.516c-0.039,0.354-0.069,0.709-0.103,1.062c-0.893-1.326-1.944-2.545-3.165-3.574
		c-0.029-0.579-0.061-1.159-0.086-1.736c-0.142-3.901-0.176-7.722-0.063-11.078c0.019-0.64,0.042-1.256,0.069-1.859
		C635.221,77.375,636.638,78.985,637.603,81.071z M630.172,73.508c-0.394,1.115-0.779,2.331-1.142,3.631
		c-0.438,1.559-0.829,3.247-1.172,5.006c-0.377,0.802-0.748,1.659-1.099,2.578c-0.228,0.604-0.443,1.247-0.655,1.894
		c-0.627-0.268-1.251-0.539-1.866-0.83c0.338-3.564,0.882-6.983,1.541-10.068c0.329-1.53,0.688-2.973,1.049-4.315
		C627.94,72.11,629.07,72.797,630.172,73.508z M582.298,54.66c0.059,0.258,0.117,0.517,0.17,0.776
		c-0.062-0.26-0.125-0.518-0.191-0.776C582.283,54.66,582.29,54.66,582.298,54.66z M471.109,77.139
		c-0.44,1.559-0.831,3.248-1.174,5.007c-0.377,0.802-0.747,1.658-1.097,2.577c-0.017,0.041-0.03,0.088-0.046,0.13
		c-0.749-0.351-1.509-0.679-2.271-1.001c0.337-2.865,0.798-5.612,1.335-8.134c0.438-2.035,0.926-3.916,1.409-5.609
		c1.166,0.745,2.305,1.516,3.361,2.37C472.104,73.858,471.585,75.426,471.109,77.139z M466.474,68.354
		c-0.387,0.683-0.777,1.411-1.169,2.179c0.242-0.856,0.487-1.679,0.734-2.457C466.184,68.169,466.328,68.263,466.474,68.354z
		 M466.322,94.553c-0.033,0.223-0.079,0.44-0.109,0.664c-0.106,0.782-0.186,1.572-0.258,2.362c-0.03-1.038-0.036-2.082-0.035-3.126
		C466.056,94.49,466.188,94.519,466.322,94.553z M476.456,100.518c-0.108-1.133-0.207-2.297-0.3-3.473
		c0.383,0.411,0.756,0.833,1.105,1.278c0.071,0.091,0.152,0.147,0.236,0.184c0.18,0.436,0.365,0.87,0.546,1.305l-1.473,1.841
		C476.533,101.272,476.49,100.901,476.456,100.518z M500.855,78.004c0.258,0.909,0.521,1.859,0.782,2.831
		c-0.648,0.048-1.297,0.102-1.943,0.16c0.322-1.315,0.642-2.55,0.942-3.685C500.71,77.541,500.783,77.769,500.855,78.004z
		 M510.112,78.151c0.021-0.049,0.041-0.096,0.062-0.146c0.21,0.724,0.416,1.465,0.621,2.204c-0.505,0.044-1.011,0.085-1.518,0.122
		c0.126-0.319,0.252-0.639,0.37-0.956C509.806,78.962,509.96,78.553,510.112,78.151z M509.911,87.014
		c0.711-0.7,1.398-1.434,2.067-2.192c0.075,0.318,0.143,0.642,0.215,0.961c-0.113,0.34-0.23,0.737-0.35,1.2
		c-0.265,1.036-0.55,2.368-0.797,3.906C510.7,89.583,510.33,88.285,509.911,87.014z M478.426,103.604
		c0.024-0.272,0.057-0.545,0.085-0.816c0.048,0.392,0.088,0.786,0.139,1.179c-0.08,0.484-0.179,0.974-0.245,1.453
		c-0.161,1.184-0.268,2.359-0.388,3.516C478.121,107.178,478.254,105.396,478.426,103.604z M487.415,100.469
		c0.004-0.031,0.006-0.061,0.01-0.091c0.136-0.956,0.263-1.911,0.383-2.86c0.145-0.94,0.331-1.859,0.48-2.774
		c0.06-0.335,0.115-0.668,0.174-0.999c0.235-0.026,0.47-0.061,0.706-0.081c0.506-0.043,1.019-0.067,1.533-0.085
		c-0.117,0.463-0.249,0.913-0.356,1.383c-0.291,1.219-0.511,2.466-0.731,3.716c-0.141,0.952-0.269,1.909-0.374,2.868
		L487.415,100.469z M496.726,98.545c0.065-0.817,0.132-1.636,0.228-2.449c0.098-0.914,0.215-1.82,0.335-2.722
		c0.252-0.024,0.503-0.045,0.753-0.077c-0.301,1.39-0.536,2.783-0.687,4.154c-0.035,0.37-0.042,0.729-0.068,1.094h-0.139H496.726z
		 M504.603,106.001c0-0.244,0.007-0.497,0.008-0.745c0.075,0.37,0.144,0.737,0.213,1.105L504.603,106.001z M508.146,71.842
		c0.077,0.221,0.156,0.457,0.234,0.681c-0.045,0.056-0.092,0.105-0.137,0.163c-0.502,0.64-1.022,1.314-1.559,2.021
		c-0.267,0.354-0.544,0.711-0.811,1.085c-0.193,0.288-0.389,0.584-0.584,0.879c-0.093-0.164-0.187-0.333-0.278-0.495
		c-0.988-1.647-1.979-3.099-2.912-4.342c0.104-0.406,0.192-0.769,0.256-1.065c0.002-0.01,0.003-0.018,0.005-0.027
		c1.468-0.933,2.801-2.051,4.064-3.291C506.987,68.804,507.57,70.271,508.146,71.842z M496.749,73.095
		c0.782-0.177,1.524-0.403,2.236-0.668c0.121,0.333,0.243,0.678,0.369,1.035c-1.3,2.027-2.871,4.79-4.409,8.118
		c-1.182,0.192-2.357,0.428-3.524,0.715c0.001-0.005,0.003-0.01,0.004-0.015c0.084-0.275,0.183-0.529,0.265-0.777
		c0.676-1.979,1-3.227,0.83-3.33c-0.024-0.015-0.058-0.017-0.095-0.013l-0.003,0.005c-0.342,0.043-1.224,0.887-2.501,2.374
		c-0.175,0.208-0.368,0.423-0.547,0.659c-0.174,0.241-0.355,0.491-0.545,0.754c-0.312,0.437-0.645,0.914-0.987,1.414
		c-0.122,0.044-0.242,0.094-0.364,0.141c0.155-0.826,0.302-1.651,0.498-2.447c0.429-2.012,0.986-3.913,1.556-5.688
		c0.188-0.571,0.381-1.122,0.578-1.661C492.336,73.677,494.561,73.589,496.749,73.095z M479.394,76.935
		c1.258-0.807,2.267-1.978,3.724-2.484c0.664-0.231,1.337-0.384,2.018-0.494c-0.927,1.633-1.834,3.415-2.606,5.345
		c-0.455,1.051-0.821,2.154-1.217,3.27c-0.35,1.127-0.712,2.272-0.993,3.445c-0.312,1.224-0.58,2.468-0.806,3.722
		c-0.24,0.419-0.462,0.845-0.65,1.285C478.763,86.314,478.916,81.607,479.394,76.935z M477.609,78.279
		c0.017,0.027,0.033,0.055,0.051,0.081c0.009,0.1,0.034,0.186,0.07,0.26c-0.352,4.967-0.349,9.937-0.067,14.896
		c-0.162-0.352-0.332-0.698-0.521-1.033c-0.423-0.755-0.898-1.481-1.415-2.178c-0.022-0.458-0.049-0.919-0.067-1.377
		c-0.144-3.901-0.179-7.722-0.065-11.078c0.022-0.771,0.052-1.515,0.085-2.234c0.508,0.692,0.963,1.439,1.345,2.264
		C477.143,78.137,477.368,78.258,477.609,78.279z M462.658,65.674c0.223,0.183,0.451,0.356,0.681,0.531
		c-0.512,0.854-1.03,1.778-1.547,2.769c-0.476-2.05-1.04-4.02-1.677-5.885C460.854,64.021,461.697,64.888,462.658,65.674z
		 M456.114,85.679c-0.004,0.022-0.007,0.045-0.012,0.066c-0.272-0.475-0.515-0.971-0.706-1.505
		C455.609,84.732,455.852,85.211,456.114,85.679z M436.517,106.475l-0.617,0.111c0.149-0.507,0.299-1.012,0.466-1.518
		C436.409,105.542,436.464,106.007,436.517,106.475z M419.182,99.751c0.01,0.052,0.021,0.103,0.029,0.155
		c-0.021,1.431-0.008,2.853,0.085,4.234c0.062,1.022,0.158,2.023,0.268,3.01l-0.669,0.323c-0.024-0.167-0.047-0.337-0.071-0.504
		c-0.071-0.544-0.143-1.091-0.214-1.642c-0.026-0.187-0.052-0.374-0.078-0.562c-0.046-0.373-0.095-0.745-0.137-1.123
		c-0.049-0.454-0.087-0.924-0.131-1.385C418.584,101.426,418.887,100.59,419.182,99.751z M427.387,50.452
		c-0.021,0.088-0.041,0.176-0.061,0.265c-0.016,0.037-0.03,0.073-0.045,0.11c-0.023-0.006-0.046-0.011-0.068-0.014
		C427.271,50.693,427.328,50.573,427.387,50.452z M423.802,58.825c0.016,0.016,0.032,0.025,0.049,0.038
		c-0.059,0.108-0.117,0.217-0.175,0.327C423.718,59.068,423.76,58.947,423.802,58.825z M422.521,63.217
		c0.007,0.001,0.015,0,0.021,0.001c-0.067,0.256-0.131,0.517-0.192,0.774C422.403,63.732,422.461,63.474,422.521,63.217z
		 M420.743,71.55c-1.127,3.794-2.006,8.211-2.329,12.822c-0.291,3.822-0.2,7.759,0.213,11.529c-0.225,0.721-0.463,1.437-0.709,2.149
		c-0.07-1.04-0.131-2.084-0.183-3.138c-0.028-0.605-0.063-1.208-0.085-1.816c-0.007-0.171-0.009-0.342-0.015-0.513
		c-0.035-1.063-0.064-2.129-0.079-3.193c-0.025-1.171-0.024-2.338-0.008-3.496c0.03-1.074,0.062-2.14,0.093-3.186
		c0.006-0.163,0.007-0.326,0.01-0.488c0.096-2.334,0.236-4.596,0.362-6.726c0.014-0.18,0.027-0.354,0.04-0.532
		c0.155-1.924,0.299-3.72,0.431-5.348c0.154-1.846,0.293-3.479,0.39-4.841c0.098-1.199,0.145-2.184,0.142-2.91
		c0-0.125-0.002-0.241-0.004-0.349c0-0.006-0.001-0.012-0.001-0.017c0-0.016-0.001-0.03-0.001-0.045
		c0.007,0.014,0.015,0.026,0.021,0.04C419.778,64.813,420.368,68.166,420.743,71.55z M412.858,41.68
		c0.054-0.01,0.105-0.023,0.156-0.043c0.133,0.358,0.265,0.717,0.396,1.076C413.227,42.369,413.041,42.025,412.858,41.68z
		 M373.755,101.127c0.099,0.824,0.198,1.649,0.271,2.478c0.172,1.792,0.305,3.573,0.409,5.331c-0.12-1.156-0.227-2.332-0.388-3.516
		c-0.106-0.771-0.235-1.549-0.375-2.331C373.711,102.441,373.736,101.786,373.755,101.127z M352.305,78.192
		c0.6,2.065,1.195,4.195,1.699,6.389c0.094,0.397,0.177,0.802,0.268,1.2c-0.113,0.341-0.23,0.738-0.35,1.201
		c-0.265,1.036-0.549,2.368-0.797,3.904c-0.352-1.325-0.728-2.644-1.154-3.935c-0.43-1.347-0.927-2.654-1.46-3.921
		c0.127-0.376,0.258-0.758,0.38-1.132c0.306-0.863,0.657-1.695,0.966-2.523C352.008,78.976,352.156,78.58,352.305,78.192z
		 M342.934,78.004c0.393,1.381,0.795,2.85,1.184,4.365c-0.199,0.377-0.381,0.766-0.558,1.159c-0.217,0.483-0.435,0.97-0.653,1.458
		c-0.076,0.176-0.146,0.358-0.222,0.536c-0.548-0.435-1.075-0.826-1.57-1.165c0.082-0.381,0.164-0.76,0.254-1.13
		c0.478-2.077,0.966-3.99,1.418-5.694C342.835,77.69,342.885,77.844,342.934,78.004z M338.706,102.932
		c0.018-1.135,0.092-2.275,0.149-3.418c0.096-1.14,0.172-2.283,0.304-3.418c0.245-2.27,0.553-4.518,0.947-6.68
		c0.071-0.447,0.156-0.886,0.242-1.322c0.282,0.479,0.566,0.983,0.856,1.514c-0.794,2.588-1.359,5.253-1.642,7.844
		c-0.217,2.254-0.249,4.44-0.165,6.539l-0.696-0.532C338.706,103.282,338.702,103.108,338.706,102.932z M320.905,101.127
		c0.037,1.318,0.119,2.608,0.234,3.877l-0.527,0.416c-0.16,1.184-0.267,2.359-0.387,3.516c0.104-1.758,0.237-3.539,0.408-5.331
		C320.707,102.776,320.807,101.951,320.905,101.127z M292.475,49.034c0.086,0.192,0.167,0.377,0.263,0.578
		c1.323,2.868,2.979,6.967,4.154,11.896c1.172,4.932,1.821,10.676,1.855,16.653c0.021,1.96-0.031,3.945-0.109,5.934
		c-0.242,1.182-0.485,2.376-0.662,3.589c-0.795,4.962-1.009,10.122-0.78,15.001c-0.013,0.135-0.026,0.27-0.04,0.404l-3.3-4.545
		c0.097,1.701,0.225,3.354,0.367,4.975l-1.474-0.535c0.014-0.041,0.027-0.082,0.041-0.123l1.799-9.835
		c-0.748,1.061-1.534,2.266-2.315,3.566l-0.307-3.728c-0.135,0.146-0.271,0.314-0.407,0.467c0.131-1.691,0.278-3.387,0.454-5.073
		c0.01-0.104,0.025-0.208,0.035-0.312c3.961-3.896,4.092-9.53,4.179-14.912c0.013-0.827-1.147-1.409-1.723-0.715
		c-0.079,0.097-0.157,0.195-0.235,0.292c1.064-6.283,1.819-10.629,1.461-10.746c-0.027-0.01-0.061-0.002-0.098,0.014
		c0,0-0.002,0.008-0.003,0.009c-0.709,0.333-3.408,5.202-6.215,12.341c-0.644,1.696-1.304,3.523-1.933,5.442
		c-0.205,0.127-0.414,0.244-0.622,0.363c0.372-3.145,0.818-6.18,1.285-8.952c0.987-5.726,2.006-10.372,2.454-12.875
		C291.943,55.396,292.548,52.247,292.475,49.034z M293.278,82.645c-0.211,0.589-0.489,1.127-0.797,1.643
		c0.004-0.032,0.009-0.063,0.013-0.095C292.78,83.69,293.048,83.177,293.278,82.645z M260.537,92.187
		c0.118,2.327,0.357,4.628,0.715,6.838c0.049,0.299,0.114,0.584,0.167,0.88c-0.015,1.014-0.001,2.017,0.04,3.01
		c-0.243-0.587-0.481-1.176-0.747-1.746l-0.185,1.681c-0.258-2.565-0.452-5.226-0.582-7.925c-0.029-0.609-0.064-1.217-0.087-1.829
		c-0.006-0.168-0.008-0.337-0.014-0.507c-0.006-0.16-0.007-0.321-0.012-0.481C260.067,92.129,260.302,92.156,260.537,92.187z
		 M260.112,88.003c0.008-0.002,0.018-0.004,0.026-0.006c0.04,0.019,0.079,0.041,0.118,0.061
		C260.208,88.039,260.16,88.021,260.112,88.003z M277.044,93.809c0.001-0.02,0.003-0.038,0.005-0.058
		c0.016-0.002,0.031-0.005,0.046-0.006C277.078,93.766,277.061,93.788,277.044,93.809z M276.957,70.438
		c-0.582,1.581-1.279,3.62-2.036,5.98c0.063-0.631,0.128-1.257,0.183-1.873c0.05-0.551,0.1-1.094,0.149-1.629
		c0.068-0.52,0.135-1.028,0.201-1.531c0.525-0.457,1.071-0.893,1.638-1.308C277.047,70.199,277.004,70.312,276.957,70.438z
		 M269.308,76.32c0.009-0.11,0.019-0.226,0.028-0.332c0.005,0.056,0.009,0.112,0.014,0.168
		C269.335,76.211,269.321,76.266,269.308,76.32z M267.445,73.95c-0.002,0.005-0.005,0.011-0.008,0.016
		c0-0.007,0.001-0.014,0.001-0.021C267.441,73.947,267.443,73.948,267.445,73.95z M260.869,81.783
		c-0.322-0.118-0.647-0.225-0.972-0.331c0.093-2.059,0.212-4.066,0.325-5.957c0.012-0.156,0.023-0.308,0.035-0.463
		c0.08-1,0.157-1.964,0.232-2.891c0.182,0.003,0.364,0.005,0.546,0.008c0.575,0.011,1.142,0.051,1.706,0.109
		C261.922,75.157,261.259,78.395,260.869,81.783z M286.017,64.079c0.086-0.071,0.165-0.147,0.25-0.22
		c-0.811,1.77-1.664,3.79-2.5,6.026c-1.458,3.926-2.858,8.497-3.857,13.358c-0.658,0.307-1.304,0.641-1.936,1
		c0.113-1.191,0.222-2.358,0.319-3.476c0.355-4.013,0.582-7.486,0.643-9.959c0.021-0.775,0.024-1.438,0.016-2.003
		C281.323,67.267,283.838,65.863,286.017,64.079z M268.401,68.868c0.111,0.647,0.213,1.298,0.31,1.947
		c-0.277-0.386-0.573-0.757-0.884-1.114c0.094-0.801,0.195-1.572,0.3-2.308C268.221,67.883,268.316,68.374,268.401,68.868z
		 M254.352,71.896c-0.277,0.677-0.554,1.37-0.828,2.095c-0.561,1.547-1.121,3.197-1.646,4.929c-0.009-0.069-0.019-0.138-0.028-0.206
		c-0.024-0.174-0.046-0.347-0.072-0.519c-0.041-0.276-0.084-0.549-0.129-0.823c-0.049-0.314-0.095-0.635-0.148-0.946
		c-0.034-0.175-0.067-0.343-0.101-0.516c-0.005-0.028-0.011-0.056-0.017-0.084c-0.106-0.555-0.219-1.104-0.333-1.646
		c-0.061-0.285-0.127-0.562-0.192-0.842c-0.048-0.204-0.088-0.414-0.14-0.615c-0.044-0.177-0.086-0.352-0.129-0.526
		c-0.007-0.028-0.014-0.057-0.021-0.085c-0.087-0.362-0.177-0.721-0.28-1.073c0.529,0.175,1.071,0.334,1.638,0.462
		C252.73,71.681,253.539,71.805,254.352,71.896z M194.399,78.151c0.021-0.049,0.041-0.096,0.062-0.144
		c0.617,2.121,1.232,4.315,1.75,6.573c0.095,0.397,0.178,0.803,0.269,1.201c-0.113,0.341-0.23,0.738-0.349,1.2
		c-0.265,1.036-0.55,2.368-0.797,3.904c-0.352-1.324-0.729-2.644-1.154-3.935c-0.45-1.407-0.971-2.774-1.53-4.093
		c0.106-0.318,0.217-0.643,0.321-0.96c0.305-0.863,0.657-1.695,0.965-2.523C194.092,78.962,194.246,78.553,194.399,78.151z
		 M185.141,78.004c0.378,1.33,0.765,2.744,1.141,4.201c-0.237,0.426-0.44,0.873-0.644,1.323c-0.216,0.483-0.435,0.97-0.654,1.458
		c-0.065,0.15-0.125,0.307-0.188,0.458c-0.556-0.437-1.087-0.825-1.586-1.162c0.077-0.354,0.153-0.711,0.237-1.055
		c0.498-2.168,1.008-4.158,1.476-5.917C184.996,77.542,185.068,77.769,185.141,78.004z M180.985,98.878
		c0.074-0.929,0.145-1.859,0.253-2.782c0.245-2.27,0.552-4.518,0.946-6.68c0.081-0.504,0.176-1,0.274-1.492
		c0.287,0.485,0.577,0.996,0.872,1.532c-0.819,2.636-1.402,5.353-1.69,7.995c-0.074,0.769-0.107,1.521-0.142,2.273l-0.147,0.06
		c0.027-0.413,0.057-0.833,0.082-1.239L180.985,98.878z M188.889,106c0-0.243,0.007-0.495,0.008-0.742
		c0.075,0.369,0.142,0.735,0.211,1.103L188.889,106z M215.963,101.124c0.099,0.825,0.198,1.651,0.272,2.48
		c0.172,1.792,0.305,3.574,0.409,5.333c-0.12-1.157-0.227-2.332-0.387-3.518c-0.107-0.771-0.237-1.551-0.376-2.333
		C215.918,102.439,215.944,101.784,215.963,101.124z M212.683,75.364c-0.058,0.109-0.117,0.219-0.175,0.328
		c0.042-0.122,0.085-0.242,0.127-0.364C212.65,75.344,212.667,75.353,212.683,75.364z M214.747,78.051
		c0.048-0.075,0.096-0.148,0.144-0.223c0.732,2.061,1.414,4.301,2.025,6.653c-0.12-0.197-0.239-0.402-0.36-0.595
		c-0.961-1.548-1.938-2.918-2.874-4.12C214.028,79.187,214.387,78.614,214.747,78.051z M210.138,79.939
		c-0.003,0.023-0.009,0.047-0.013,0.07c-0.014-0.067-0.031-0.134-0.044-0.201C210.1,79.853,210.119,79.896,210.138,79.939z
		 M201.69,58.184c0.054-0.01,0.106-0.025,0.157-0.043c0.133,0.358,0.265,0.716,0.396,1.074
		C202.059,58.871,201.874,58.527,201.69,58.184z M211.859,84.193c0.202,0.539,0.403,1.088,0.601,1.658
		c1.207,3.414,2.256,7.36,2.948,11.484c0.092,0.512,0.172,1.028,0.249,1.547l-0.542,0.532c-0.694-2.923-1.583-5.842-2.631-8.639
		c-0.333-0.912-0.693-1.804-1.065-2.683C211.531,86.76,211.602,85.476,211.859,84.193z M56.431,92.281
		c0.401,1.641,0.766,3.325,1.056,5.055c0.185,1.027,0.323,2.074,0.475,3.117c0.122,1.05,0.258,2.097,0.352,3.151
		c0.172,1.792,0.305,3.574,0.409,5.333c-0.121-1.157-0.227-2.332-0.388-3.518C57.72,100.988,56.55,96.366,55,91.993
		c-0.039-0.289-0.08-0.577-0.121-0.865C55.381,91.534,55.898,91.918,56.431,92.281z M72.307,103.217
		c-0.033-0.444-0.062-0.888-0.101-1.338c-0.176-2.014-0.457-4.078-0.799-6.15c0.686,0.017,1.368,0.043,2.041,0.1
		c0.153,0.013,0.306,0.036,0.459,0.052c0.075,1.581,0.131,3.152,0.16,4.688c0.007,0.418,0.007,0.828,0.011,1.243L72.307,103.217z
		 M130.795,67.906c-0.102,2.282-0.33,4.559-0.691,6.814c-0.284,1.774-0.683,3.517-1.154,5.237c0.37-3.116,0.812-6.125,1.276-8.875
		C130.416,69.981,130.606,68.921,130.795,67.906z M103.331,99.024c0.04,0.242,0.093,0.474,0.135,0.713l-1.132-1.192
		c0.06,0.697,0.111,1.385,0.167,2.078c-0.042-0.083-0.087-0.161-0.129-0.244c-0.149-1.797-0.261-3.633-0.351-5.482
		c-0.006-0.133-0.013-0.265-0.019-0.396c0.25-0.132,0.498-0.266,0.739-0.404C102.876,95.77,103.071,97.422,103.331,99.024z
		 M133.572,106.822l-0.325-0.116c-0.048-1.635-0.063-3.311-0.033-5.024c0.079-4.306,0.411-8.909,0.88-13.423
		c0.447-4.517,1.175-8.923,1.779-12.816c1.301-7.773,2.348-13.443,1.939-13.577c-0.027-0.01-0.061-0.002-0.099,0.014
		c0,0-0.002,0.008-0.003,0.009c-0.651,0.307-2.982,4.446-5.535,10.654c0.177-1.35,0.31-2.71,0.386-4.086
		c0.163-2.934,0.085-5.866-0.157-8.788c0.417-2.138,0.627-3.407,0.444-3.475c-0.027-0.01-0.062-0.002-0.1,0.015l-0.002,0.007
		c-0.092,0.04-0.218,0.159-0.373,0.344c0.113-1.37,0.259-2.702,0.712-4.053c0.38-1.135,0.958-2.194,1.583-3.222
		c0.051,0.111,0.095,0.213,0.148,0.327c1.324,2.868,2.979,6.967,4.155,11.896c1.172,4.932,1.821,10.676,1.855,16.653
		c0.021,1.96-0.032,3.945-0.11,5.934c-0.242,1.182-0.485,2.376-0.661,3.589c-0.795,4.962-1.01,10.122-0.781,15.001
		c-0.088,0.907-0.176,1.813-0.263,2.703L133.572,106.822z M137.07,36.699c-0.021,0.088-0.041,0.177-0.06,0.266
		c-0.015,0.038-0.03,0.073-0.045,0.11c-0.022-0.006-0.045-0.01-0.068-0.012C136.954,36.941,137.012,36.82,137.07,36.699z
		 M133.534,45.11c-0.026,0.047-0.051,0.094-0.076,0.142c-0.01-0.009-0.017-0.015-0.026-0.022c0.018-0.052,0.036-0.104,0.054-0.154
		C133.5,45.089,133.517,45.099,133.534,45.11z M132.203,49.465c0.008,0,0.015,0,0.022,0c-0.067,0.258-0.132,0.517-0.193,0.775
		C132.086,49.981,132.144,49.724,132.203,49.465z M97.344,69.739c-0.58,1.308-1.167,2.728-1.743,4.251
		c-0.561,1.547-1.121,3.197-1.646,4.928c-0.01-0.076-0.021-0.151-0.031-0.228c-0.022-0.163-0.043-0.326-0.067-0.487
		c-0.042-0.281-0.086-0.56-0.131-0.838c-0.049-0.313-0.095-0.631-0.147-0.94c-0.034-0.175-0.067-0.345-0.101-0.518
		c-0.004-0.024-0.01-0.049-0.014-0.074c-0.108-0.56-0.221-1.113-0.337-1.659c-0.06-0.28-0.125-0.552-0.188-0.828
		c-0.049-0.206-0.089-0.419-0.143-0.623c-0.007-0.026-0.013-0.053-0.02-0.079C94.28,71.662,95.841,70.734,97.344,69.739z
		 M81.901,61.105c0.276-0.975,0.667-1.894,1.139-2.773c0.408-0.065,0.784-0.385,0.768-0.858c0-0.001,0-0.003,0-0.004
		c0,0.005,0.001,0.009,0.001,0.014c0.051,0.534,0.111,1.142,0.198,1.804c0.323,2.662,0.748,6.331,0.885,10.551
		c0.005,0.189,0.002,0.395,0.006,0.586c-0.336,0.961-0.611,1.946-0.818,2.941c-0.528-3.585-1.292-7.129-2.265-10.615
		C81.844,62.204,81.872,61.655,81.901,61.105z M70.772,75.829c0.037,0.129,0.075,0.253,0.112,0.383
		c0.134,0.434,0.247,0.884,0.365,1.338c0.115,0.454,0.246,0.91,0.357,1.379c0.213,0.941,0.453,1.896,0.64,2.884
		c0.216,0.979,0.373,1.994,0.56,3.01c0.003,0.024,0.007,0.05,0.011,0.074c-0.184-0.053-0.367-0.111-0.55-0.162
		c-1.226-0.34-2.463-0.609-3.707-0.834c-1.024-3.163-2.224-6.156-3.496-8.848c0.264,0.072,0.528,0.145,0.8,0.207
		C67.486,75.624,69.126,75.766,70.772,75.829z M59.469,73.241c-0.481-0.694-0.96-1.347-1.434-1.96
		c0.357,0.296,0.722,0.582,1.094,0.854C59.243,72.497,59.356,72.867,59.469,73.241z M53.182,82.243
		c0.033,0.08,0.065,0.167,0.098,0.249c-0.012-0.002-0.024-0.002-0.037-0.004C53.223,82.406,53.202,82.325,53.182,82.243z
		 M189.624,115.155c-0.045,0.676-0.066,1.328-0.134,1.949c-0.006,0.071-0.011,0.138-0.017,0.209
		c-0.006-0.071-0.01-0.138-0.017-0.209c-0.069-0.621-0.089-1.273-0.134-1.949c-0.043-0.676-0.095-1.375-0.156-2.096
		c-0.076-0.68-0.077-1.381-0.116-2.099c0.131-0.854,0.272-1.721,0.423-2.594c0.151,0.873,0.292,1.738,0.423,2.593
		c-0.039,0.718-0.039,1.42-0.115,2.1C189.72,113.78,189.667,114.479,189.624,115.155z M347.416,115.155
		c-0.031,0.464-0.055,0.91-0.086,1.349c-0.031-0.438-0.055-0.885-0.086-1.349c-0.043-0.676-0.097-1.375-0.157-2.096
		c-0.076-0.68-0.077-1.382-0.115-2.1c0.111-0.732,0.231-1.473,0.358-2.222c0.126,0.749,0.246,1.489,0.357,2.222
		c-0.038,0.718-0.039,1.42-0.115,2.1C347.512,113.78,347.459,114.479,347.416,115.155z M505.338,115.155
		c-0.045,0.676-0.064,1.328-0.135,1.949c-0.006,0.071-0.011,0.138-0.017,0.209c-0.006-0.071-0.011-0.138-0.017-0.209
		c-0.068-0.621-0.089-1.273-0.134-1.949c-0.043-0.676-0.096-1.375-0.157-2.096c-0.075-0.68-0.076-1.382-0.114-2.1
		c0.13-0.854,0.271-1.721,0.422-2.594c0.151,0.873,0.293,1.738,0.424,2.592c-0.039,0.719-0.04,1.421-0.116,2.102
		C505.434,113.78,505.381,114.479,505.338,115.155z"/>
</g>
</svg>
